<svg width="19" height="20" viewBox="0 0 19 20" fill="none" xmlns="http://www.w3.org/2000/svg">
<path d="M8.99184 16.7049C9.28474 16.9978 9.75961 16.9978 10.0525 16.7049L14.8255 11.9319C15.1184 11.639 15.1184 11.1641 14.8255 10.8712C14.5326 10.5784 14.0577 10.5784 13.7648 10.8712L9.52217 15.1139L5.27953 10.8712C4.98664 10.5784 4.51176 10.5784 4.21887 10.8712C3.92598 11.1641 3.92598 11.639 4.21887 11.9319L8.99184 16.7049ZM9.52217 0H8.77217V16.1745H9.52217H10.2722V0H9.52217ZM0 18.6007V19.3507C0.0121855 19.3507 0.0243947 19.3507 0.0366277 19.3507C0.0488606 19.3507 0.0611172 19.3507 0.0733973 19.3507C0.0856774 19.3507 0.097981 19.3507 0.110308 19.3507C0.122635 19.3507 0.134985 19.3507 0.147359 19.3507C0.159733 19.3507 0.17213 19.3507 0.18455 19.3507C0.196969 19.3507 0.209413 19.3507 0.221879 19.3507C0.234345 19.3507 0.246834 19.3507 0.259345 19.3507C0.271857 19.3507 0.284392 19.3507 0.296949 19.3507C0.309507 19.3507 0.322087 19.3507 0.334689 19.3507C0.347292 19.3507 0.359917 19.3507 0.372564 19.3507C0.385212 19.3507 0.397882 19.3507 0.410574 19.3507C0.423266 19.3507 0.435981 19.3507 0.448717 19.3507C0.461454 19.3507 0.474212 19.3507 0.486993 19.3507C0.499774 19.3507 0.512577 19.3507 0.525401 19.3507C0.538226 19.3507 0.551072 19.3507 0.56394 19.3507C0.576808 19.3507 0.589698 19.3507 0.602609 19.3507C0.615521 19.3507 0.628454 19.3507 0.641408 19.3507C0.654362 19.3507 0.667338 19.3507 0.680335 19.3507C0.693332 19.3507 0.706351 19.3507 0.71939 19.3507C0.73243 19.3507 0.74549 19.3507 0.758572 19.3507C0.771654 19.3507 0.784756 19.3507 0.79788 19.3507C0.811003 19.3507 0.824148 19.3507 0.837313 19.3507C0.850478 19.3507 0.863664 19.3507 0.876871 19.3507C0.890077 19.3507 0.903304 19.3507 0.916552 19.3507C0.929799 19.3507 0.943067 19.3507 0.956355 19.3507C0.969644 19.3507 0.982952 19.3507 0.996281 19.3507C1.00961 19.3507 1.02296 19.3507 1.03633 19.3507C1.0497 19.3507 1.06309 19.3507 1.07649 19.3507C1.0899 19.3507 1.10333 19.3507 1.11678 19.3507C1.13023 19.3507 1.1437 19.3507 1.15719 19.3507C1.17067 19.3507 1.18418 19.3507 1.19771 19.3507C1.21124 19.3507 1.22478 19.3507 1.23835 19.3507C1.25191 19.3507 1.2655 19.3507 1.2791 19.3507C1.29271 19.3507 1.30633 19.3507 1.31997 19.3507C1.33362 19.3507 1.34728 19.3507 1.36096 19.3507C1.37464 19.3507 1.38834 19.3507 1.40206 19.3507C1.41578 19.3507 1.42951 19.3507 1.44327 19.3507C1.45702 19.3507 1.4708 19.3507 1.48459 19.3507C1.49838 19.3507 1.5122 19.3507 1.52603 19.3507C1.53986 19.3507 1.5537 19.3507 1.56757 19.3507C1.58144 19.3507 1.59532 19.3507 1.60922 19.3507C1.62313 19.3507 1.63705 19.3507 1.65099 19.3507C1.66492 19.3507 1.67888 19.3507 1.69285 19.3507C1.70683 19.3507 1.72082 19.3507 1.73483 19.3507C1.74884 19.3507 1.76287 19.3507 1.77691 19.3507C1.79096 19.3507 1.80502 19.3507 1.8191 19.3507C1.83318 19.3507 1.84728 19.3507 1.86139 19.3507C1.87551 19.3507 1.88964 19.3507 1.90379 19.3507C1.91794 19.3507 1.9321 19.3507 1.94629 19.3507C1.96047 19.3507 1.97467 19.3507 1.98889 19.3507C2.0031 19.3507 2.01734 19.3507 2.03159 19.3507C2.04584 19.3507 2.0601 19.3507 2.07439 19.3507C2.08867 19.3507 2.10297 19.3507 2.11729 19.3507C2.1316 19.3507 2.14594 19.3507 2.16029 19.3507C2.17464 19.3507 2.189 19.3507 2.20338 19.3507C2.21776 19.3507 2.23216 19.3507 2.24658 19.3507C2.26099 19.3507 2.27542 19.3507 2.28987 19.3507C2.30431 19.3507 2.31877 19.3507 2.33325 19.3507C2.34773 19.3507 2.36222 19.3507 2.37673 19.3507C2.39124 19.3507 2.40576 19.3507 2.4203 19.3507C2.43484 19.3507 2.44939 19.3507 2.46396 19.3507C2.47853 19.3507 2.49312 19.3507 2.50772 19.3507C2.52232 19.3507 2.53694 19.3507 2.55157 19.3507C2.5662 19.3507 2.58084 19.3507 2.5955 19.3507C2.61016 19.3507 2.62484 19.3507 2.63953 19.3507C2.65422 19.3507 2.66893 19.3507 2.68365 19.3507C2.69836 19.3507 2.7131 19.3507 2.72785 19.3507C2.7426 19.3507 2.75736 19.3507 2.77214 19.3507C2.78691 19.3507 2.80171 19.3507 2.81651 19.3507C2.83132 19.3507 2.84614 19.3507 2.86097 19.3507C2.87581 19.3507 2.89065 19.3507 2.90552 19.3507C2.92038 19.3507 2.93525 19.3507 2.95014 19.3507C2.96503 19.3507 2.97994 19.3507 2.99485 19.3507C3.00977 19.3507 3.0247 19.3507 3.03965 19.3507C3.05459 19.3507 3.06955 19.3507 3.08452 19.3507C3.09949 19.3507 3.11447 19.3507 3.12947 19.3507C3.14447 19.3507 3.15948 19.3507 3.1745 19.3507C3.18953 19.3507 3.20456 19.3507 3.21961 19.3507C3.23466 19.3507 3.24973 19.3507 3.2648 19.3507C3.27988 19.3507 3.29497 19.3507 3.31007 19.3507C3.32517 19.3507 3.34028 19.3507 3.35541 19.3507C3.37053 19.3507 3.38567 19.3507 3.40082 19.3507C3.41597 19.3507 3.43114 19.3507 3.44631 19.3507C3.46149 19.3507 3.47668 19.3507 3.49188 19.3507C3.50708 19.3507 3.52229 19.3507 3.53751 19.3507C3.55274 19.3507 3.56797 19.3507 3.58322 19.3507C3.59847 19.3507 3.61373 19.3507 3.629 19.3507C3.64427 19.3507 3.65955 19.3507 3.67485 19.3507C3.69014 19.3507 3.70545 19.3507 3.72076 19.3507C3.73608 19.3507 3.75141 19.3507 3.76675 19.3507C3.78209 19.3507 3.79744 19.3507 3.8128 19.3507C3.82816 19.3507 3.84354 19.3507 3.85892 19.3507C3.87431 19.3507 3.8897 19.3507 3.90511 19.3507C3.92051 19.3507 3.93593 19.3507 3.95136 19.3507C3.96679 19.3507 3.98222 19.3507 3.99767 19.3507C4.01312 19.3507 4.02858 19.3507 4.04405 19.3507C4.05952 19.3507 4.075 19.3507 4.09049 19.3507C4.10598 19.3507 4.12148 19.3507 4.13699 19.3507C4.1525 19.3507 4.16803 19.3507 4.18356 19.3507C4.19909 19.3507 4.21463 19.3507 4.23018 19.3507C4.24573 19.3507 4.26129 19.3507 4.27686 19.3507C4.29243 19.3507 4.30801 19.3507 4.3236 19.3507C4.33919 19.3507 4.35479 19.3507 4.3704 19.3507C4.38601 19.3507 4.40163 19.3507 4.41725 19.3507C4.43288 19.3507 4.44852 19.3507 4.46416 19.3507C4.47981 19.3507 4.49547 19.3507 4.51113 19.3507C4.52679 19.3507 4.54247 19.3507 4.55815 19.3507C4.57383 19.3507 4.58952 19.3507 4.60522 19.3507C4.62092 19.3507 4.63663 19.3507 4.65235 19.3507C4.66806 19.3507 4.68379 19.3507 4.69952 19.3507C4.71526 19.3507 4.731 19.3507 4.74675 19.3507C4.7625 19.3507 4.77826 19.3507 4.79403 19.3507C4.8098 19.3507 4.82557 19.3507 4.84135 19.3507C4.85714 19.3507 4.87293 19.3507 4.88873 19.3507C4.90453 19.3507 4.92034 19.3507 4.93615 19.3507C4.95197 19.3507 4.96779 19.3507 4.98362 19.3507C4.99945 19.3507 5.01529 19.3507 5.03113 19.3507C5.04698 19.3507 5.06283 19.3507 5.07869 19.3507C5.09455 19.3507 5.11042 19.3507 5.1263 19.3507C5.14217 19.3507 5.15805 19.3507 5.17394 19.3507C5.18983 19.3507 5.20573 19.3507 5.22163 19.3507C5.23754 19.3507 5.25345 19.3507 5.26936 19.3507C5.28528 19.3507 5.3012 19.3507 5.31713 19.3507C5.33306 19.3507 5.349 19.3507 5.36494 19.3507C5.38089 19.3507 5.39684 19.3507 5.4128 19.3507C5.42875 19.3507 5.44471 19.3507 5.46068 19.3507C5.47665 19.3507 5.49263 19.3507 5.50861 19.3507C5.52459 19.3507 5.54058 19.3507 5.55657 19.3507C5.57257 19.3507 5.58856 19.3507 5.60457 19.3507C5.62057 19.3507 5.63659 19.3507 5.6526 19.3507C5.66862 19.3507 5.68464 19.3507 5.70067 19.3507C5.7167 19.3507 5.73273 19.3507 5.74877 19.3507C5.76481 19.3507 5.78085 19.3507 5.7969 19.3507C5.81295 19.3507 5.82901 19.3507 5.84507 19.3507C5.86113 19.3507 5.87719 19.3507 5.89326 19.3507C5.90933 19.3507 5.92541 19.3507 5.94148 19.3507C5.95756 19.3507 5.97365 19.3507 5.98974 19.3507C6.00583 19.3507 6.02192 19.3507 6.03802 19.3507C6.05412 19.3507 6.07022 19.3507 6.08633 19.3507C6.10244 19.3507 6.11855 19.3507 6.13466 19.3507C6.15078 19.3507 6.1669 19.3507 6.18303 19.3507C6.19915 19.3507 6.21528 19.3507 6.23141 19.3507C6.24754 19.3507 6.26368 19.3507 6.27982 19.3507C6.29596 19.3507 6.31211 19.3507 6.32825 19.3507C6.3444 19.3507 6.36055 19.3507 6.37671 19.3507C6.39287 19.3507 6.40902 19.3507 6.42519 19.3507C6.44135 19.3507 6.45751 19.3507 6.47368 19.3507C6.48985 19.3507 6.50603 19.3507 6.5222 19.3507C6.53838 19.3507 6.55456 19.3507 6.57074 19.3507C6.58692 19.3507 6.6031 19.3507 6.61929 19.3507C6.63548 19.3507 6.65167 19.3507 6.66786 19.3507C6.68406 19.3507 6.70025 19.3507 6.71645 19.3507C6.73265 19.3507 6.74885 19.3507 6.76506 19.3507C6.78126 19.3507 6.79747 19.3507 6.81367 19.3507C6.82988 19.3507 6.84609 19.3507 6.86231 19.3507C6.87852 19.3507 6.89473 19.3507 6.91095 19.3507C6.92717 19.3507 6.94339 19.3507 6.95961 19.3507C6.97583 19.3507 6.99205 19.3507 7.00828 19.3507C7.0245 19.3507 7.04073 19.3507 7.05696 19.3507C7.07319 19.3507 7.08942 19.3507 7.10565 19.3507C7.12188 19.3507 7.13811 19.3507 7.15435 19.3507C7.17058 19.3507 7.18682 19.3507 7.20305 19.3507C7.21929 19.3507 7.23553 19.3507 7.25177 19.3507C7.26801 19.3507 7.28425 19.3507 7.30049 19.3507C7.31673 19.3507 7.33297 19.3507 7.34921 19.3507C7.36546 19.3507 7.3817 19.3507 7.39794 19.3507C7.41419 19.3507 7.43043 19.3507 7.44668 19.3507C7.46292 19.3507 7.47917 19.3507 7.49542 19.3507C7.51166 19.3507 7.52791 19.3507 7.54416 19.3507C7.5604 19.3507 7.57665 19.3507 7.5929 19.3507C7.60915 19.3507 7.62539 19.3507 7.64164 19.3507C7.65789 19.3507 7.67413 19.3507 7.69038 19.3507C7.70663 19.3507 7.72288 19.3507 7.73912 19.3507C7.75537 19.3507 7.77161 19.3507 7.78786 19.3507C7.80411 19.3507 7.82035 19.3507 7.8366 19.3507C7.85284 19.3507 7.86908 19.3507 7.88533 19.3507C7.90157 19.3507 7.91781 19.3507 7.93406 19.3507C7.9503 19.3507 7.96654 19.3507 7.98278 19.3507C7.99902 19.3507 8.01526 19.3507 8.03149 19.3507C8.04773 19.3507 8.06397 19.3507 8.0802 19.3507C8.09644 19.3507 8.11267 19.3507 8.1289 19.3507C8.14514 19.3507 8.16137 19.3507 8.1776 19.3507C8.19383 19.3507 8.21005 19.3507 8.22628 19.3507C8.24251 19.3507 8.25873 19.3507 8.27495 19.3507C8.29118 19.3507 8.3074 19.3507 8.32362 19.3507C8.33983 19.3507 8.35605 19.3507 8.37226 19.3507C8.38848 19.3507 8.40469 19.3507 8.4209 19.3507C8.43711 19.3507 8.45332 19.3507 8.46953 19.3507C8.48573 19.3507 8.50193 19.3507 8.51813 19.3507C8.53433 19.3507 8.55053 19.3507 8.56673 19.3507C8.58292 19.3507 8.59912 19.3507 8.6153 19.3507C8.63149 19.3507 8.64768 19.3507 8.66387 19.3507C8.68005 19.3507 8.69623 19.3507 8.71241 19.3507C8.72859 19.3507 8.74476 19.3507 8.76093 19.3507C8.7771 19.3507 8.79327 19.3507 8.80944 19.3507C8.8256 19.3507 8.84176 19.3507 8.85792 19.3507C8.87408 19.3507 8.89023 19.3507 8.90638 19.3507C8.92253 19.3507 8.93868 19.3507 8.95482 19.3507C8.97097 19.3507 8.9871 19.3507 9.00324 19.3507C9.01938 19.3507 9.03551 19.3507 9.05163 19.3507C9.06776 19.3507 9.08388 19.3507 9.1 19.3507C9.11612 19.3507 9.13224 19.3507 9.14835 19.3507C9.16446 19.3507 9.18056 19.3507 9.19667 19.3507C9.21277 19.3507 9.22886 19.3507 9.24496 19.3507C9.26105 19.3507 9.27714 19.3507 9.29322 19.3507C9.3093 19.3507 9.32538 19.3507 9.34145 19.3507C9.35753 19.3507 9.3736 19.3507 9.38966 19.3507C9.40572 19.3507 9.42178 19.3507 9.43783 19.3507C9.45389 19.3507 9.46993 19.3507 9.48598 19.3507C9.50202 19.3507 9.51805 19.3507 9.53409 19.3507C9.55012 19.3507 9.56614 19.3507 9.58216 19.3507C9.59818 19.3507 9.6142 19.3507 9.63021 19.3507C9.64622 19.3507 9.66222 19.3507 9.67822 19.3507C9.69422 19.3507 9.71021 19.3507 9.72619 19.3507C9.74218 19.3507 9.75816 19.3507 9.77413 19.3507C9.7901 19.3507 9.80607 19.3507 9.82203 19.3507C9.83799 19.3507 9.85395 19.3507 9.86989 19.3507C9.88584 19.3507 9.90178 19.3507 9.91772 19.3507C9.93365 19.3507 9.94958 19.3507 9.9655 19.3507C9.98143 19.3507 9.99734 19.3507 10.0132 19.3507C10.0292 19.3507 10.0451 19.3507 10.061 19.3507C10.0768 19.3507 10.0927 19.3507 10.1086 19.3507C10.1245 19.3507 10.1404 19.3507 10.1562 19.3507C10.1721 19.3507 10.188 19.3507 10.2038 19.3507C10.2197 19.3507 10.2355 19.3507 10.2513 19.3507C10.2672 19.3507 10.283 19.3507 10.2988 19.3507C10.3146 19.3507 10.3304 19.3507 10.3463 19.3507C10.3621 19.3507 10.3779 19.3507 10.3936 19.3507C10.4094 19.3507 10.4252 19.3507 10.441 19.3507C10.4568 19.3507 10.4725 19.3507 10.4883 19.3507C10.504 19.3507 10.5198 19.3507 10.5355 19.3507C10.5513 19.3507 10.567 19.3507 10.5827 19.3507C10.5984 19.3507 10.6142 19.3507 10.6299 19.3507C10.6456 19.3507 10.6613 19.3507 10.677 19.3507C10.6926 19.3507 10.7083 19.3507 10.724 19.3507C10.7397 19.3507 10.7553 19.3507 10.771 19.3507C10.7866 19.3507 10.8023 19.3507 10.8179 19.3507C10.8335 19.3507 10.8492 19.3507 10.8648 19.3507C10.8804 19.3507 10.896 19.3507 10.9116 19.3507C10.9272 19.3507 10.9428 19.3507 10.9584 19.3507C10.9739 19.3507 10.9895 19.3507 11.0051 19.3507C11.0206 19.3507 11.0362 19.3507 11.0517 19.3507C11.0672 19.3507 11.0828 19.3507 11.0983 19.3507C11.1138 19.3507 11.1293 19.3507 11.1448 19.3507C11.1603 19.3507 11.1758 19.3507 11.1913 19.3507C11.2067 19.3507 11.2222 19.3507 11.2377 19.3507C11.2531 19.3507 11.2686 19.3507 11.284 19.3507C11.2994 19.3507 11.3149 19.3507 11.3303 19.3507C11.3457 19.3507 11.3611 19.3507 11.3765 19.3507C11.3919 19.3507 11.4072 19.3507 11.4226 19.3507C11.438 19.3507 11.4533 19.3507 11.4687 19.3507C11.484 19.3507 11.4994 19.3507 11.5147 19.3507C11.53 19.3507 11.5453 19.3507 11.5606 19.3507C11.5759 19.3507 11.5912 19.3507 11.6065 19.3507C11.6218 19.3507 11.6371 19.3507 11.6523 19.3507C11.6676 19.3507 11.6828 19.3507 11.698 19.3507C11.7133 19.3507 11.7285 19.3507 11.7437 19.3507C11.7589 19.3507 11.7741 19.3507 11.7893 19.3507C11.8045 19.3507 11.8196 19.3507 11.8348 19.3507C11.85 19.3507 11.8651 19.3507 11.8802 19.3507C11.8954 19.3507 11.9105 19.3507 11.9256 19.3507C11.9407 19.3507 11.9558 19.3507 11.9709 19.3507C11.986 19.3507 12.0011 19.3507 12.0161 19.3507C12.0312 19.3507 12.0462 19.3507 12.0613 19.3507C12.0763 19.3507 12.0913 19.3507 12.1063 19.3507C12.1213 19.3507 12.1363 19.3507 12.1513 19.3507C12.1663 19.3507 12.1812 19.3507 12.1962 19.3507C12.2111 19.3507 12.2261 19.3507 12.241 19.3507C12.2559 19.3507 12.2708 19.3507 12.2857 19.3507C12.3006 19.3507 12.3155 19.3507 12.3304 19.3507C12.3453 19.3507 12.3601 19.3507 12.375 19.3507C12.3898 19.3507 12.4046 19.3507 12.4195 19.3507C12.4343 19.3507 12.4491 19.3507 12.4639 19.3507C12.4787 19.3507 12.4934 19.3507 12.5082 19.3507C12.5229 19.3507 12.5377 19.3507 12.5524 19.3507C12.5671 19.3507 12.5819 19.3507 12.5966 19.3507C12.6113 19.3507 12.6259 19.3507 12.6406 19.3507C12.6553 19.3507 12.6699 19.3507 12.6846 19.3507C12.6992 19.3507 12.7139 19.3507 12.7285 19.3507C12.7431 19.3507 12.7577 19.3507 12.7722 19.3507C12.7868 19.3507 12.8014 19.3507 12.8159 19.3507C12.8305 19.3507 12.845 19.3507 12.8595 19.3507C12.8741 19.3507 12.8886 19.3507 12.9031 19.3507C12.9175 19.3507 12.932 19.3507 12.9465 19.3507C12.9609 19.3507 12.9754 19.3507 12.9898 19.3507C13.0042 19.3507 13.0186 19.3507 13.033 19.3507C13.0474 19.3507 13.0618 19.3507 13.0761 19.3507C13.0905 19.3507 13.1048 19.3507 13.1192 19.3507C13.1335 19.3507 13.1478 19.3507 13.1621 19.3507C13.1764 19.3507 13.1907 19.3507 13.2049 19.3507C13.2192 19.3507 13.2334 19.3507 13.2477 19.3507C13.2619 19.3507 13.2761 19.3507 13.2903 19.3507C13.3045 19.3507 13.3187 19.3507 13.3328 19.3507C13.347 19.3507 13.3611 19.3507 13.3753 19.3507C13.3894 19.3507 13.4035 19.3507 13.4176 19.3507C13.4317 19.3507 13.4458 19.3507 13.4598 19.3507C13.4739 19.3507 13.4879 19.3507 13.5019 19.3507C13.516 19.3507 13.53 19.3507 13.544 19.3507C13.5579 19.3507 13.5719 19.3507 13.5859 19.3507C13.5998 19.3507 13.6137 19.3507 13.6277 19.3507C13.6416 19.3507 13.6555 19.3507 13.6693 19.3507C13.6832 19.3507 13.6971 19.3507 13.7109 19.3507C13.7248 19.3507 13.7386 19.3507 13.7524 19.3507C13.7662 19.3507 13.78 19.3507 13.7938 19.3507C13.8075 19.3507 13.8213 19.3507 13.835 19.3507C13.8487 19.3507 13.8624 19.3507 13.8761 19.3507C13.8898 19.3507 13.9035 19.3507 13.9172 19.3507C13.9308 19.3507 13.9445 19.3507 13.9581 19.3507C13.9717 19.3507 13.9853 19.3507 13.9989 19.3507C14.0124 19.3507 14.026 19.3507 14.0395 19.3507C14.0531 19.3507 14.0666 19.3507 14.0801 19.3507C14.0936 19.3507 14.1071 19.3507 14.1205 19.3507C14.134 19.3507 14.1475 19.3507 14.1609 19.3507C14.1743 19.3507 14.1877 19.3507 14.2011 19.3507C14.2145 19.3507 14.2278 19.3507 14.2412 19.3507C14.2545 19.3507 14.2678 19.3507 14.2811 19.3507C14.2944 19.3507 14.3077 19.3507 14.321 19.3507C14.3342 19.3507 14.3475 19.3507 14.3607 19.3507C14.3739 19.3507 14.3871 19.3507 14.4003 19.3507C14.4135 19.3507 14.4266 19.3507 14.4398 19.3507C14.4529 19.3507 14.466 19.3507 14.4791 19.3507C14.4922 19.3507 14.5053 19.3507 14.5183 19.3507C14.5314 19.3507 14.5444 19.3507 14.5574 19.3507C14.5705 19.3507 14.5834 19.3507 14.5964 19.3507C14.6094 19.3507 14.6223 19.3507 14.6353 19.3507C14.6482 19.3507 14.6611 19.3507 14.674 19.3507C14.6869 19.3507 14.6997 19.3507 14.7126 19.3507C14.7254 19.3507 14.7382 19.3507 14.751 19.3507C14.7638 19.3507 14.7766 19.3507 14.7893 19.3507C14.8021 19.3507 14.8148 19.3507 14.8275 19.3507C14.8402 19.3507 14.8529 19.3507 14.8656 19.3507C14.8782 19.3507 14.8909 19.3507 14.9035 19.3507C14.9161 19.3507 14.9287 19.3507 14.9413 19.3507C14.9538 19.3507 14.9664 19.3507 14.9789 19.3507C14.9914 19.3507 15.004 19.3507 15.0164 19.3507C15.0289 19.3507 15.0414 19.3507 15.0538 19.3507C15.0662 19.3507 15.0787 19.3507 15.091 19.3507C15.1034 19.3507 15.1158 19.3507 15.1281 19.3507C15.1405 19.3507 15.1528 19.3507 15.1651 19.3507C15.1774 19.3507 15.1897 19.3507 15.2019 19.3507C15.2142 19.3507 15.2264 19.3507 15.2386 19.3507C15.2508 19.3507 15.263 19.3507 15.2751 19.3507C15.2873 19.3507 15.2994 19.3507 15.3115 19.3507C15.3236 19.3507 15.3357 19.3507 15.3478 19.3507C15.3598 19.3507 15.3719 19.3507 15.3839 19.3507C15.3959 19.3507 15.4079 19.3507 15.4198 19.3507C15.4318 19.3507 15.4437 19.3507 15.4556 19.3507C15.4675 19.3507 15.4794 19.3507 15.4913 19.3507C15.5031 19.3507 15.515 19.3507 15.5268 19.3507C15.5386 19.3507 15.5504 19.3507 15.5622 19.3507C15.5739 19.3507 15.5857 19.3507 15.5974 19.3507C15.6091 19.3507 15.6208 19.3507 15.6324 19.3507C15.6441 19.3507 15.6557 19.3507 15.6673 19.3507C15.6789 19.3507 15.6905 19.3507 15.7021 19.3507C15.7137 19.3507 15.7252 19.3507 15.7367 19.3507C15.7482 19.3507 15.7597 19.3507 15.7711 19.3507C15.7826 19.3507 15.794 19.3507 15.8054 19.3507C15.8168 19.3507 15.8282 19.3507 15.8396 19.3507C15.8509 19.3507 15.8623 19.3507 15.8736 19.3507C15.8849 19.3507 15.8961 19.3507 15.9074 19.3507C15.9186 19.3507 15.9299 19.3507 15.9411 19.3507C15.9522 19.3507 15.9634 19.3507 15.9746 19.3507C15.9857 19.3507 15.9968 19.3507 16.0079 19.3507C16.019 19.3507 16.0301 19.3507 16.0411 19.3507C16.0521 19.3507 16.0631 19.3507 16.0741 19.3507C16.0851 19.3507 16.096 19.3507 16.107 19.3507C16.1179 19.3507 16.1288 19.3507 16.1397 19.3507C16.1505 19.3507 16.1614 19.3507 16.1722 19.3507C16.183 19.3507 16.1938 19.3507 16.2046 19.3507C16.2153 19.3507 16.2261 19.3507 16.2368 19.3507C16.2475 19.3507 16.2582 19.3507 16.2688 19.3507C16.2795 19.3507 16.2901 19.3507 16.3007 19.3507C16.3113 19.3507 16.3218 19.3507 16.3324 19.3507C16.3429 19.3507 16.3534 19.3507 16.3639 19.3507C16.3744 19.3507 16.3848 19.3507 16.3953 19.3507C16.4057 19.3507 16.4161 19.3507 16.4265 19.3507C16.4368 19.3507 16.4472 19.3507 16.4575 19.3507C16.4678 19.3507 16.4781 19.3507 16.4883 19.3507C16.4986 19.3507 16.5088 19.3507 16.519 19.3507C16.5292 19.3507 16.5394 19.3507 16.5495 19.3507C16.5596 19.3507 16.5697 19.3507 16.5798 19.3507C16.5899 19.3507 16.5999 19.3507 16.61 19.3507C16.62 19.3507 16.63 19.3507 16.6399 19.3507C16.6499 19.3507 16.6598 19.3507 16.6697 19.3507C16.6796 19.3507 16.6895 19.3507 16.6993 19.3507C16.7092 19.3507 16.719 19.3507 16.7288 19.3507C16.7385 19.3507 16.7483 19.3507 16.758 19.3507C16.7677 19.3507 16.7774 19.3507 16.7871 19.3507C16.7967 19.3507 16.8064 19.3507 16.816 19.3507C16.8256 19.3507 16.8351 19.3507 16.8447 19.3507C16.8542 19.3507 16.8637 19.3507 16.8732 19.3507C16.8827 19.3507 16.8921 19.3507 16.9015 19.3507C16.911 19.3507 16.9203 19.3507 16.9297 19.3507C16.9391 19.3507 16.9484 19.3507 16.9577 19.3507C16.967 19.3507 16.9762 19.3507 16.9855 19.3507C16.9947 19.3507 17.0039 19.3507 17.013 19.3507C17.0222 19.3507 17.0313 19.3507 17.0405 19.3507C17.0496 19.3507 17.0586 19.3507 17.0677 19.3507C17.0767 19.3507 17.0857 19.3507 17.0947 19.3507C17.1037 19.3507 17.1126 19.3507 17.1215 19.3507C17.1304 19.3507 17.1393 19.3507 17.1482 19.3507C17.157 19.3507 17.1658 19.3507 17.1746 19.3507C17.1834 19.3507 17.1922 19.3507 17.2009 19.3507C17.2096 19.3507 17.2183 19.3507 17.2269 19.3507C17.2356 19.3507 17.2442 19.3507 17.2528 19.3507C17.2614 19.3507 17.27 19.3507 17.2785 19.3507C17.287 19.3507 17.2955 19.3507 17.304 19.3507C17.3124 19.3507 17.3208 19.3507 17.3292 19.3507C17.3376 19.3507 17.346 19.3507 17.3543 19.3507C17.3626 19.3507 17.3709 19.3507 17.3792 19.3507C17.3874 19.3507 17.3957 19.3507 17.4039 19.3507C17.4121 19.3507 17.4202 19.3507 17.4283 19.3507C17.4365 19.3507 17.4446 19.3507 17.4526 19.3507C17.4607 19.3507 17.4687 19.3507 17.4767 19.3507C17.4847 19.3507 17.4926 19.3507 17.5006 19.3507C17.5085 19.3507 17.5164 19.3507 17.5242 19.3507C17.5321 19.3507 17.5399 19.3507 17.5477 19.3507C17.5555 19.3507 17.5632 19.3507 17.5709 19.3507C17.5786 19.3507 17.5863 19.3507 17.594 19.3507C17.6016 19.3507 17.6092 19.3507 17.6168 19.3507C17.6244 19.3507 17.6319 19.3507 17.6394 19.3507C17.647 19.3507 17.6544 19.3507 17.6619 19.3507C17.6693 19.3507 17.6767 19.3507 17.6841 19.3507C17.6914 19.3507 17.6988 19.3507 17.7061 19.3507C17.7134 19.3507 17.7206 19.3507 17.7279 19.3507C17.7351 19.3507 17.7423 19.3507 17.7494 19.3507C17.7566 19.3507 17.7637 19.3507 17.7708 19.3507C17.7779 19.3507 17.7849 19.3507 17.7919 19.3507C17.799 19.3507 17.8059 19.3507 17.8129 19.3507C17.8198 19.3507 17.8267 19.3507 17.8336 19.3507C17.8405 19.3507 17.8473 19.3507 17.8541 19.3507C17.8609 19.3507 17.8676 19.3507 17.8744 19.3507C17.8811 19.3507 17.8878 19.3507 17.8944 19.3507C17.9011 19.3507 17.9077 19.3507 17.9143 19.3507C17.9208 19.3507 17.9274 19.3507 17.9339 19.3507C17.9404 19.3507 17.9469 19.3507 17.9533 19.3507C17.9597 19.3507 17.9661 19.3507 17.9725 19.3507C17.9788 19.3507 17.9851 19.3507 17.9914 19.3507C17.9977 19.3507 18.0039 19.3507 18.0101 19.3507C18.0164 19.3507 18.0225 19.3507 18.0287 19.3507C18.0348 19.3507 18.0409 19.3507 18.0469 19.3507C18.053 19.3507 18.059 19.3507 18.065 19.3507C18.071 19.3507 18.0769 19.3507 18.0828 19.3507C18.0887 19.3507 18.0946 19.3507 18.1004 19.3507C18.1063 19.3507 18.112 19.3507 18.1178 19.3507C18.1235 19.3507 18.1293 19.3507 18.1349 19.3507C18.1406 19.3507 18.1462 19.3507 18.1518 19.3507C18.1574 19.3507 18.163 19.3507 18.1685 19.3507C18.174 19.3507 18.1795 19.3507 18.185 19.3507C18.1904 19.3507 18.1958 19.3507 18.2012 19.3507C18.2066 19.3507 18.2119 19.3507 18.2172 19.3507C18.2225 19.3507 18.2277 19.3507 18.2329 19.3507C18.2381 19.3507 18.2433 19.3507 18.2484 19.3507C18.2536 19.3507 18.2587 19.3507 18.2637 19.3507C18.2688 19.3507 18.2738 19.3507 18.2787 19.3507C18.2837 19.3507 18.2887 19.3507 18.2935 19.3507C18.2984 19.3507 18.3033 19.3507 18.3081 19.3507C18.3129 19.3507 18.3177 19.3507 18.3224 19.3507C18.3272 19.3507 18.3319 19.3507 18.3365 19.3507C18.3412 19.3507 18.3458 19.3507 18.3504 19.3507C18.3549 19.3507 18.3595 19.3507 18.364 19.3507C18.3684 19.3507 18.3729 19.3507 18.3773 19.3507C18.3817 19.3507 18.3861 19.3507 18.3904 19.3507C18.3948 19.3507 18.399 19.3507 18.4033 19.3507C18.4075 19.3507 18.4117 19.3507 18.4159 19.3507C18.4201 19.3507 18.4242 19.3507 18.4283 19.3507C18.4324 19.3507 18.4364 19.3507 18.4404 19.3507C18.4444 19.3507 18.4484 19.3507 18.4523 19.3507C18.4562 19.3507 18.4601 19.3507 18.4639 19.3507C18.4678 19.3507 18.4716 19.3507 18.4753 19.3507C18.4791 19.3507 18.4828 19.3507 18.4864 19.3507C18.4901 19.3507 18.4937 19.3507 18.4973 19.3507C18.5009 19.3507 18.5044 19.3507 18.5079 19.3507C18.5114 19.3507 18.5149 19.3507 18.5183 19.3507C18.5217 19.3507 18.5251 19.3507 18.5284 19.3507C18.5318 19.3507 18.5351 19.3507 18.5383 19.3507C18.5416 19.3507 18.5448 19.3507 18.5479 19.3507C18.5511 19.3507 18.5542 19.3507 18.5573 19.3507C18.5604 19.3507 18.5634 19.3507 18.5664 19.3507C18.5694 19.3507 18.5723 19.3507 18.5752 19.3507C18.5781 19.3507 18.581 19.3507 18.5838 19.3507C18.5866 19.3507 18.5894 19.3507 18.5921 19.3507C18.5949 19.3507 18.5975 19.3507 18.6002 19.3507C18.6028 19.3507 18.6054 19.3507 18.608 19.3507C18.6105 19.3507 18.613 19.3507 18.6155 19.3507C18.618 19.3507 18.6204 19.3507 18.6228 19.3507C18.6252 19.3507 18.6275 19.3507 18.6298 19.3507C18.6321 19.3507 18.6343 19.3507 18.6365 19.3507C18.6388 19.3507 18.6409 19.3507 18.643 19.3507C18.6451 19.3507 18.6472 19.3507 18.6492 19.3507C18.6513 19.3507 18.6533 19.3507 18.6552 19.3507C18.6571 19.3507 18.659 19.3507 18.6609 19.3507C18.6627 19.3507 18.6645 19.3507 18.6663 19.3507C18.668 19.3507 18.6698 19.3507 18.6714 19.3507C18.6731 19.3507 18.6747 19.3507 18.6763 19.3507C18.6779 19.3507 18.6794 19.3507 18.6809 19.3507C18.6824 19.3507 18.6838 19.3507 18.6852 19.3507C18.6866 19.3507 18.688 19.3507 18.6893 19.3507C18.6906 19.3507 18.6918 19.3507 18.693 19.3507C18.6943 19.3507 18.6954 19.3507 18.6966 19.3507C18.6977 19.3507 18.6987 19.3507 18.6998 19.3507C18.7008 19.3507 18.7018 19.3507 18.7027 19.3507C18.7037 19.3507 18.7046 19.3507 18.7054 19.3507C18.7063 19.3507 18.7071 19.3507 18.7078 19.3507C18.7086 19.3507 18.7093 19.3507 18.7099 19.3507C18.7106 19.3507 18.7112 19.3507 18.7118 19.3507C18.7123 19.3507 18.7128 19.3507 18.7133 19.3507C18.7138 19.3507 18.7142 19.3507 18.7146 19.3507C18.715 19.3507 18.7153 19.3507 18.7156 19.3507C18.7159 19.3507 18.7161 19.3507 18.7163 19.3507C18.7165 19.3507 18.7166 19.3507 18.7167 19.3507C18.7168 19.3507 18.7169 19.3507 18.7169 18.6007C18.7169 17.8507 18.7168 17.8507 18.7167 17.8507C18.7166 17.8507 18.7165 17.8507 18.7163 17.8507C18.7161 17.8507 18.7159 17.8507 18.7156 17.8507C18.7153 17.8507 18.715 17.8507 18.7146 17.8507C18.7142 17.8507 18.7138 17.8507 18.7133 17.8507C18.7128 17.8507 18.7123 17.8507 18.7118 17.8507C18.7112 17.8507 18.7106 17.8507 18.7099 17.8507C18.7093 17.8507 18.7086 17.8507 18.7078 17.8507C18.7071 17.8507 18.7063 17.8507 18.7054 17.8507C18.7046 17.8507 18.7037 17.8507 18.7027 17.8507C18.7018 17.8507 18.7008 17.8507 18.6998 17.8507C18.6987 17.8507 18.6977 17.8507 18.6966 17.8507C18.6954 17.8507 18.6943 17.8507 18.693 17.8507C18.6918 17.8507 18.6906 17.8507 18.6893 17.8507C18.688 17.8507 18.6866 17.8507 18.6852 17.8507C18.6838 17.8507 18.6824 17.8507 18.6809 17.8507C18.6794 17.8507 18.6779 17.8507 18.6763 17.8507C18.6747 17.8507 18.6731 17.8507 18.6714 17.8507C18.6698 17.8507 18.668 17.8507 18.6663 17.8507C18.6645 17.8507 18.6627 17.8507 18.6609 17.8507C18.659 17.8507 18.6571 17.8507 18.6552 17.8507C18.6533 17.8507 18.6513 17.8507 18.6492 17.8507C18.6472 17.8507 18.6451 17.8507 18.643 17.8507C18.6409 17.8507 18.6388 17.8507 18.6365 17.8507C18.6343 17.8507 18.6321 17.8507 18.6298 17.8507C18.6275 17.8507 18.6252 17.8507 18.6228 17.8507C18.6204 17.8507 18.618 17.8507 18.6155 17.8507C18.613 17.8507 18.6105 17.8507 18.608 17.8507C18.6054 17.8507 18.6028 17.8507 18.6002 17.8507C18.5975 17.8507 18.5949 17.8507 18.5921 17.8507C18.5894 17.8507 18.5866 17.8507 18.5838 17.8507C18.581 17.8507 18.5781 17.8507 18.5752 17.8507C18.5723 17.8507 18.5694 17.8507 18.5664 17.8507C18.5634 17.8507 18.5604 17.8507 18.5573 17.8507C18.5542 17.8507 18.5511 17.8507 18.5479 17.8507C18.5448 17.8507 18.5416 17.8507 18.5383 17.8507C18.5351 17.8507 18.5318 17.8507 18.5284 17.8507C18.5251 17.8507 18.5217 17.8507 18.5183 17.8507C18.5149 17.8507 18.5114 17.8507 18.5079 17.8507C18.5044 17.8507 18.5009 17.8507 18.4973 17.8507C18.4937 17.8507 18.4901 17.8507 18.4864 17.8507C18.4828 17.8507 18.4791 17.8507 18.4753 17.8507C18.4716 17.8507 18.4678 17.8507 18.4639 17.8507C18.4601 17.8507 18.4562 17.8507 18.4523 17.8507C18.4484 17.8507 18.4444 17.8507 18.4404 17.8507C18.4364 17.8507 18.4324 17.8507 18.4283 17.8507C18.4242 17.8507 18.4201 17.8507 18.4159 17.8507C18.4117 17.8507 18.4075 17.8507 18.4033 17.8507C18.399 17.8507 18.3948 17.8507 18.3904 17.8507C18.3861 17.8507 18.3817 17.8507 18.3773 17.8507C18.3729 17.8507 18.3684 17.8507 18.364 17.8507C18.3595 17.8507 18.3549 17.8507 18.3504 17.8507C18.3458 17.8507 18.3412 17.8507 18.3365 17.8507C18.3319 17.8507 18.3272 17.8507 18.3224 17.8507C18.3177 17.8507 18.3129 17.8507 18.3081 17.8507C18.3033 17.8507 18.2984 17.8507 18.2935 17.8507C18.2887 17.8507 18.2837 17.8507 18.2787 17.8507C18.2738 17.8507 18.2688 17.8507 18.2637 17.8507C18.2587 17.8507 18.2536 17.8507 18.2484 17.8507C18.2433 17.8507 18.2381 17.8507 18.2329 17.8507C18.2277 17.8507 18.2225 17.8507 18.2172 17.8507C18.2119 17.8507 18.2066 17.8507 18.2012 17.8507C18.1958 17.8507 18.1904 17.8507 18.185 17.8507C18.1795 17.8507 18.174 17.8507 18.1685 17.8507C18.163 17.8507 18.1574 17.8507 18.1518 17.8507C18.1462 17.8507 18.1406 17.8507 18.1349 17.8507C18.1293 17.8507 18.1235 17.8507 18.1178 17.8507C18.112 17.8507 18.1063 17.8507 18.1004 17.8507C18.0946 17.8507 18.0887 17.8507 18.0828 17.8507C18.0769 17.8507 18.071 17.8507 18.065 17.8507C18.059 17.8507 18.053 17.8507 18.0469 17.8507C18.0409 17.8507 18.0348 17.8507 18.0287 17.8507C18.0225 17.8507 18.0164 17.8507 18.0101 17.8507C18.0039 17.8507 17.9977 17.8507 17.9914 17.8507C17.9851 17.8507 17.9788 17.8507 17.9725 17.8507C17.9661 17.8507 17.9597 17.8507 17.9533 17.8507C17.9469 17.8507 17.9404 17.8507 17.9339 17.8507C17.9274 17.8507 17.9208 17.8507 17.9143 17.8507C17.9077 17.8507 17.9011 17.8507 17.8944 17.8507C17.8878 17.8507 17.8811 17.8507 17.8744 17.8507C17.8676 17.8507 17.8609 17.8507 17.8541 17.8507C17.8473 17.8507 17.8405 17.8507 17.8336 17.8507C17.8267 17.8507 17.8198 17.8507 17.8129 17.8507C17.8059 17.8507 17.799 17.8507 17.7919 17.8507C17.7849 17.8507 17.7779 17.8507 17.7708 17.8507C17.7637 17.8507 17.7566 17.8507 17.7494 17.8507C17.7423 17.8507 17.7351 17.8507 17.7279 17.8507C17.7206 17.8507 17.7134 17.8507 17.7061 17.8507C17.6988 17.8507 17.6914 17.8507 17.6841 17.8507C17.6767 17.8507 17.6693 17.8507 17.6619 17.8507C17.6544 17.8507 17.647 17.8507 17.6394 17.8507C17.6319 17.8507 17.6244 17.8507 17.6168 17.8507C17.6092 17.8507 17.6016 17.8507 17.594 17.8507C17.5863 17.8507 17.5786 17.8507 17.5709 17.8507C17.5632 17.8507 17.5555 17.8507 17.5477 17.8507C17.5399 17.8507 17.5321 17.8507 17.5242 17.8507C17.5164 17.8507 17.5085 17.8507 17.5006 17.8507C17.4926 17.8507 17.4847 17.8507 17.4767 17.8507C17.4687 17.8507 17.4607 17.8507 17.4526 17.8507C17.4446 17.8507 17.4365 17.8507 17.4283 17.8507C17.4202 17.8507 17.4121 17.8507 17.4039 17.8507C17.3957 17.8507 17.3874 17.8507 17.3792 17.8507C17.3709 17.8507 17.3626 17.8507 17.3543 17.8507C17.346 17.8507 17.3376 17.8507 17.3292 17.8507C17.3208 17.8507 17.3124 17.8507 17.304 17.8507C17.2955 17.8507 17.287 17.8507 17.2785 17.8507C17.27 17.8507 17.2614 17.8507 17.2528 17.8507C17.2442 17.8507 17.2356 17.8507 17.2269 17.8507C17.2183 17.8507 17.2096 17.8507 17.2009 17.8507C17.1922 17.8507 17.1834 17.8507 17.1746 17.8507C17.1658 17.8507 17.157 17.8507 17.1482 17.8507C17.1393 17.8507 17.1304 17.8507 17.1215 17.8507C17.1126 17.8507 17.1037 17.8507 17.0947 17.8507C17.0857 17.8507 17.0767 17.8507 17.0677 17.8507C17.0586 17.8507 17.0496 17.8507 17.0405 17.8507C17.0313 17.8507 17.0222 17.8507 17.013 17.8507C17.0039 17.8507 16.9947 17.8507 16.9855 17.8507C16.9762 17.8507 16.967 17.8507 16.9577 17.8507C16.9484 17.8507 16.9391 17.8507 16.9297 17.8507C16.9203 17.8507 16.911 17.8507 16.9015 17.8507C16.8921 17.8507 16.8827 17.8507 16.8732 17.8507C16.8637 17.8507 16.8542 17.8507 16.8447 17.8507C16.8351 17.8507 16.8256 17.8507 16.816 17.8507C16.8064 17.8507 16.7967 17.8507 16.7871 17.8507C16.7774 17.8507 16.7677 17.8507 16.758 17.8507C16.7483 17.8507 16.7385 17.8507 16.7288 17.8507C16.719 17.8507 16.7092 17.8507 16.6993 17.8507C16.6895 17.8507 16.6796 17.8507 16.6697 17.8507C16.6598 17.8507 16.6499 17.8507 16.6399 17.8507C16.63 17.8507 16.62 17.8507 16.61 17.8507C16.5999 17.8507 16.5899 17.8507 16.5798 17.8507C16.5697 17.8507 16.5596 17.8507 16.5495 17.8507C16.5394 17.8507 16.5292 17.8507 16.519 17.8507C16.5088 17.8507 16.4986 17.8507 16.4883 17.8507C16.4781 17.8507 16.4678 17.8507 16.4575 17.8507C16.4472 17.8507 16.4368 17.8507 16.4265 17.8507C16.4161 17.8507 16.4057 17.8507 16.3953 17.8507C16.3848 17.8507 16.3744 17.8507 16.3639 17.8507C16.3534 17.8507 16.3429 17.8507 16.3324 17.8507C16.3218 17.8507 16.3113 17.8507 16.3007 17.8507C16.2901 17.8507 16.2795 17.8507 16.2688 17.8507C16.2582 17.8507 16.2475 17.8507 16.2368 17.8507C16.2261 17.8507 16.2153 17.8507 16.2046 17.8507C16.1938 17.8507 16.183 17.8507 16.1722 17.8507C16.1614 17.8507 16.1505 17.8507 16.1397 17.8507C16.1288 17.8507 16.1179 17.8507 16.107 17.8507C16.096 17.8507 16.0851 17.8507 16.0741 17.8507C16.0631 17.8507 16.0521 17.8507 16.0411 17.8507C16.0301 17.8507 16.019 17.8507 16.0079 17.8507C15.9968 17.8507 15.9857 17.8507 15.9746 17.8507C15.9634 17.8507 15.9522 17.8507 15.9411 17.8507C15.9299 17.8507 15.9186 17.8507 15.9074 17.8507C15.8961 17.8507 15.8849 17.8507 15.8736 17.8507C15.8623 17.8507 15.8509 17.8507 15.8396 17.8507C15.8282 17.8507 15.8168 17.8507 15.8054 17.8507C15.794 17.8507 15.7826 17.8507 15.7711 17.8507C15.7597 17.8507 15.7482 17.8507 15.7367 17.8507C15.7252 17.8507 15.7137 17.8507 15.7021 17.8507C15.6905 17.8507 15.6789 17.8507 15.6673 17.8507C15.6557 17.8507 15.6441 17.8507 15.6324 17.8507C15.6208 17.8507 15.6091 17.8507 15.5974 17.8507C15.5857 17.8507 15.5739 17.8507 15.5622 17.8507C15.5504 17.8507 15.5386 17.8507 15.5268 17.8507C15.515 17.8507 15.5031 17.8507 15.4913 17.8507C15.4794 17.8507 15.4675 17.8507 15.4556 17.8507C15.4437 17.8507 15.4318 17.8507 15.4198 17.8507C15.4079 17.8507 15.3959 17.8507 15.3839 17.8507C15.3719 17.8507 15.3598 17.8507 15.3478 17.8507C15.3357 17.8507 15.3236 17.8507 15.3115 17.8507C15.2994 17.8507 15.2873 17.8507 15.2751 17.8507C15.263 17.8507 15.2508 17.8507 15.2386 17.8507C15.2264 17.8507 15.2142 17.8507 15.2019 17.8507C15.1897 17.8507 15.1774 17.8507 15.1651 17.8507C15.1528 17.8507 15.1405 17.8507 15.1281 17.8507C15.1158 17.8507 15.1034 17.8507 15.091 17.8507C15.0787 17.8507 15.0662 17.8507 15.0538 17.8507C15.0414 17.8507 15.0289 17.8507 15.0164 17.8507C15.004 17.8507 14.9914 17.8507 14.9789 17.8507C14.9664 17.8507 14.9538 17.8507 14.9413 17.8507C14.9287 17.8507 14.9161 17.8507 14.9035 17.8507C14.8909 17.8507 14.8782 17.8507 14.8656 17.8507C14.8529 17.8507 14.8402 17.8507 14.8275 17.8507C14.8148 17.8507 14.8021 17.8507 14.7893 17.8507C14.7766 17.8507 14.7638 17.8507 14.751 17.8507C14.7382 17.8507 14.7254 17.8507 14.7126 17.8507C14.6997 17.8507 14.6869 17.8507 14.674 17.8507C14.6611 17.8507 14.6482 17.8507 14.6353 17.8507C14.6223 17.8507 14.6094 17.8507 14.5964 17.8507C14.5834 17.8507 14.5705 17.8507 14.5574 17.8507C14.5444 17.8507 14.5314 17.8507 14.5183 17.8507C14.5053 17.8507 14.4922 17.8507 14.4791 17.8507C14.466 17.8507 14.4529 17.8507 14.4398 17.8507C14.4266 17.8507 14.4135 17.8507 14.4003 17.8507C14.3871 17.8507 14.3739 17.8507 14.3607 17.8507C14.3475 17.8507 14.3342 17.8507 14.321 17.8507C14.3077 17.8507 14.2944 17.8507 14.2811 17.8507C14.2678 17.8507 14.2545 17.8507 14.2412 17.8507C14.2278 17.8507 14.2145 17.8507 14.2011 17.8507C14.1877 17.8507 14.1743 17.8507 14.1609 17.8507C14.1475 17.8507 14.134 17.8507 14.1205 17.8507C14.1071 17.8507 14.0936 17.8507 14.0801 17.8507C14.0666 17.8507 14.0531 17.8507 14.0395 17.8507C14.026 17.8507 14.0124 17.8507 13.9989 17.8507C13.9853 17.8507 13.9717 17.8507 13.9581 17.8507C13.9445 17.8507 13.9308 17.8507 13.9172 17.8507C13.9035 17.8507 13.8898 17.8507 13.8761 17.8507C13.8624 17.8507 13.8487 17.8507 13.835 17.8507C13.8213 17.8507 13.8075 17.8507 13.7938 17.8507C13.78 17.8507 13.7662 17.8507 13.7524 17.8507C13.7386 17.8507 13.7248 17.8507 13.7109 17.8507C13.6971 17.8507 13.6832 17.8507 13.6693 17.8507C13.6555 17.8507 13.6416 17.8507 13.6277 17.8507C13.6137 17.8507 13.5998 17.8507 13.5859 17.8507C13.5719 17.8507 13.5579 17.8507 13.544 17.8507C13.53 17.8507 13.516 17.8507 13.5019 17.8507C13.4879 17.8507 13.4739 17.8507 13.4598 17.8507C13.4458 17.8507 13.4317 17.8507 13.4176 17.8507C13.4035 17.8507 13.3894 17.8507 13.3753 17.8507C13.3611 17.8507 13.347 17.8507 13.3328 17.8507C13.3187 17.8507 13.3045 17.8507 13.2903 17.8507C13.2761 17.8507 13.2619 17.8507 13.2477 17.8507C13.2334 17.8507 13.2192 17.8507 13.2049 17.8507C13.1907 17.8507 13.1764 17.8507 13.1621 17.8507C13.1478 17.8507 13.1335 17.8507 13.1192 17.8507C13.1048 17.8507 13.0905 17.8507 13.0761 17.8507C13.0618 17.8507 13.0474 17.8507 13.033 17.8507C13.0186 17.8507 13.0042 17.8507 12.9898 17.8507C12.9754 17.8507 12.9609 17.8507 12.9465 17.8507C12.932 17.8507 12.9175 17.8507 12.9031 17.8507C12.8886 17.8507 12.8741 17.8507 12.8595 17.8507C12.845 17.8507 12.8305 17.8507 12.8159 17.8507C12.8014 17.8507 12.7868 17.8507 12.7722 17.8507C12.7577 17.8507 12.7431 17.8507 12.7285 17.8507C12.7139 17.8507 12.6992 17.8507 12.6846 17.8507C12.6699 17.8507 12.6553 17.8507 12.6406 17.8507C12.6259 17.8507 12.6113 17.8507 12.5966 17.8507C12.5819 17.8507 12.5671 17.8507 12.5524 17.8507C12.5377 17.8507 12.5229 17.8507 12.5082 17.8507C12.4934 17.8507 12.4787 17.8507 12.4639 17.8507C12.4491 17.8507 12.4343 17.8507 12.4195 17.8507C12.4046 17.8507 12.3898 17.8507 12.375 17.8507C12.3601 17.8507 12.3453 17.8507 12.3304 17.8507C12.3155 17.8507 12.3006 17.8507 12.2857 17.8507C12.2708 17.8507 12.2559 17.8507 12.241 17.8507C12.2261 17.8507 12.2111 17.8507 12.1962 17.8507C12.1812 17.8507 12.1663 17.8507 12.1513 17.8507C12.1363 17.8507 12.1213 17.8507 12.1063 17.8507C12.0913 17.8507 12.0763 17.8507 12.0613 17.8507C12.0462 17.8507 12.0312 17.8507 12.0161 17.8507C12.0011 17.8507 11.986 17.8507 11.9709 17.8507C11.9558 17.8507 11.9407 17.8507 11.9256 17.8507C11.9105 17.8507 11.8954 17.8507 11.8802 17.8507C11.8651 17.8507 11.85 17.8507 11.8348 17.8507C11.8196 17.8507 11.8045 17.8507 11.7893 17.8507C11.7741 17.8507 11.7589 17.8507 11.7437 17.8507C11.7285 17.8507 11.7133 17.8507 11.698 17.8507C11.6828 17.8507 11.6676 17.8507 11.6523 17.8507C11.6371 17.8507 11.6218 17.8507 11.6065 17.8507C11.5912 17.8507 11.5759 17.8507 11.5606 17.8507C11.5453 17.8507 11.53 17.8507 11.5147 17.8507C11.4994 17.8507 11.484 17.8507 11.4687 17.8507C11.4533 17.8507 11.438 17.8507 11.4226 17.8507C11.4072 17.8507 11.3919 17.8507 11.3765 17.8507C11.3611 17.8507 11.3457 17.8507 11.3303 17.8507C11.3149 17.8507 11.2994 17.8507 11.284 17.8507C11.2686 17.8507 11.2531 17.8507 11.2377 17.8507C11.2222 17.8507 11.2067 17.8507 11.1913 17.8507C11.1758 17.8507 11.1603 17.8507 11.1448 17.8507C11.1293 17.8507 11.1138 17.8507 11.0983 17.8507C11.0828 17.8507 11.0672 17.8507 11.0517 17.8507C11.0362 17.8507 11.0206 17.8507 11.0051 17.8507C10.9895 17.8507 10.9739 17.8507 10.9584 17.8507C10.9428 17.8507 10.9272 17.8507 10.9116 17.8507C10.896 17.8507 10.8804 17.8507 10.8648 17.8507C10.8492 17.8507 10.8335 17.8507 10.8179 17.8507C10.8023 17.8507 10.7866 17.8507 10.771 17.8507C10.7553 17.8507 10.7397 17.8507 10.724 17.8507C10.7083 17.8507 10.6926 17.8507 10.677 17.8507C10.6613 17.8507 10.6456 17.8507 10.6299 17.8507C10.6142 17.8507 10.5984 17.8507 10.5827 17.8507C10.567 17.8507 10.5513 17.8507 10.5355 17.8507C10.5198 17.8507 10.504 17.8507 10.4883 17.8507C10.4725 17.8507 10.4568 17.8507 10.441 17.8507C10.4252 17.8507 10.4094 17.8507 10.3936 17.8507C10.3779 17.8507 10.3621 17.8507 10.3463 17.8507C10.3304 17.8507 10.3146 17.8507 10.2988 17.8507C10.283 17.8507 10.2672 17.8507 10.2513 17.8507C10.2355 17.8507 10.2197 17.8507 10.2038 17.8507C10.188 17.8507 10.1721 17.8507 10.1562 17.8507C10.1404 17.8507 10.1245 17.8507 10.1086 17.8507C10.0927 17.8507 10.0768 17.8507 10.061 17.8507C10.0451 17.8507 10.0292 17.8507 10.0132 17.8507C9.99734 17.8507 9.98143 17.8507 9.9655 17.8507C9.94958 17.8507 9.93365 17.8507 9.91772 17.8507C9.90178 17.8507 9.88584 17.8507 9.86989 17.8507C9.85395 17.8507 9.83799 17.8507 9.82203 17.8507C9.80607 17.8507 9.7901 17.8507 9.77413 17.8507C9.75816 17.8507 9.74218 17.8507 9.72619 17.8507C9.71021 17.8507 9.69422 17.8507 9.67822 17.8507C9.66222 17.8507 9.64622 17.8507 9.63021 17.8507C9.6142 17.8507 9.59818 17.8507 9.58216 17.8507C9.56614 17.8507 9.55012 17.8507 9.53409 17.8507C9.51805 17.8507 9.50202 17.8507 9.48598 17.8507C9.46993 17.8507 9.45389 17.8507 9.43783 17.8507C9.42178 17.8507 9.40572 17.8507 9.38966 17.8507C9.3736 17.8507 9.35753 17.8507 9.34145 17.8507C9.32538 17.8507 9.3093 17.8507 9.29322 17.8507C9.27714 17.8507 9.26105 17.8507 9.24496 17.8507C9.22886 17.8507 9.21277 17.8507 9.19667 17.8507C9.18056 17.8507 9.16446 17.8507 9.14835 17.8507C9.13224 17.8507 9.11612 17.8507 9.1 17.8507C9.08388 17.8507 9.06776 17.8507 9.05163 17.8507C9.03551 17.8507 9.01938 17.8507 9.00324 17.8507C8.9871 17.8507 8.97097 17.8507 8.95482 17.8507C8.93868 17.8507 8.92253 17.8507 8.90638 17.8507C8.89023 17.8507 8.87408 17.8507 8.85792 17.8507C8.84176 17.8507 8.8256 17.8507 8.80944 17.8507C8.79327 17.8507 8.7771 17.8507 8.76093 17.8507C8.74476 17.8507 8.72859 17.8507 8.71241 17.8507C8.69623 17.8507 8.68005 17.8507 8.66387 17.8507C8.64768 17.8507 8.63149 17.8507 8.6153 17.8507C8.59912 17.8507 8.58292 17.8507 8.56673 17.8507C8.55053 17.8507 8.53433 17.8507 8.51813 17.8507C8.50193 17.8507 8.48573 17.8507 8.46953 17.8507C8.45332 17.8507 8.43711 17.8507 8.4209 17.8507C8.40469 17.8507 8.38848 17.8507 8.37226 17.8507C8.35605 17.8507 8.33983 17.8507 8.32362 17.8507C8.3074 17.8507 8.29118 17.8507 8.27495 17.8507C8.25873 17.8507 8.24251 17.8507 8.22628 17.8507C8.21005 17.8507 8.19383 17.8507 8.1776 17.8507C8.16137 17.8507 8.14514 17.8507 8.1289 17.8507C8.11267 17.8507 8.09644 17.8507 8.0802 17.8507C8.06397 17.8507 8.04773 17.8507 8.03149 17.8507C8.01526 17.8507 7.99902 17.8507 7.98278 17.8507C7.96654 17.8507 7.9503 17.8507 7.93406 17.8507C7.91781 17.8507 7.90157 17.8507 7.88533 17.8507C7.86908 17.8507 7.85284 17.8507 7.8366 17.8507C7.82035 17.8507 7.80411 17.8507 7.78786 17.8507C7.77161 17.8507 7.75537 17.8507 7.73912 17.8507C7.72288 17.8507 7.70663 17.8507 7.69038 17.8507C7.67413 17.8507 7.65789 17.8507 7.64164 17.8507C7.62539 17.8507 7.60915 17.8507 7.5929 17.8507C7.57665 17.8507 7.5604 17.8507 7.54416 17.8507C7.52791 17.8507 7.51166 17.8507 7.49542 17.8507C7.47917 17.8507 7.46292 17.8507 7.44668 17.8507C7.43043 17.8507 7.41419 17.8507 7.39794 17.8507C7.3817 17.8507 7.36546 17.8507 7.34921 17.8507C7.33297 17.8507 7.31673 17.8507 7.30049 17.8507C7.28425 17.8507 7.26801 17.8507 7.25177 17.8507C7.23553 17.8507 7.21929 17.8507 7.20305 17.8507C7.18682 17.8507 7.17058 17.8507 7.15435 17.8507C7.13811 17.8507 7.12188 17.8507 7.10565 17.8507C7.08942 17.8507 7.07319 17.8507 7.05696 17.8507C7.04073 17.8507 7.0245 17.8507 7.00828 17.8507C6.99205 17.8507 6.97583 17.8507 6.95961 17.8507C6.94339 17.8507 6.92717 17.8507 6.91095 17.8507C6.89473 17.8507 6.87852 17.8507 6.86231 17.8507C6.84609 17.8507 6.82988 17.8507 6.81367 17.8507C6.79747 17.8507 6.78126 17.8507 6.76506 17.8507C6.74885 17.8507 6.73265 17.8507 6.71645 17.8507C6.70025 17.8507 6.68406 17.8507 6.66786 17.8507C6.65167 17.8507 6.63548 17.8507 6.61929 17.8507C6.6031 17.8507 6.58692 17.8507 6.57074 17.8507C6.55456 17.8507 6.53838 17.8507 6.5222 17.8507C6.50603 17.8507 6.48985 17.8507 6.47368 17.8507C6.45751 17.8507 6.44135 17.8507 6.42519 17.8507C6.40902 17.8507 6.39287 17.8507 6.37671 17.8507C6.36055 17.8507 6.3444 17.8507 6.32825 17.8507C6.31211 17.8507 6.29596 17.8507 6.27982 17.8507C6.26368 17.8507 6.24754 17.8507 6.23141 17.8507C6.21528 17.8507 6.19915 17.8507 6.18303 17.8507C6.1669 17.8507 6.15078 17.8507 6.13466 17.8507C6.11855 17.8507 6.10244 17.8507 6.08633 17.8507C6.07022 17.8507 6.05412 17.8507 6.03802 17.8507C6.02192 17.8507 6.00583 17.8507 5.98974 17.8507C5.97365 17.8507 5.95756 17.8507 5.94148 17.8507C5.92541 17.8507 5.90933 17.8507 5.89326 17.8507C5.87719 17.8507 5.86113 17.8507 5.84507 17.8507C5.82901 17.8507 5.81295 17.8507 5.7969 17.8507C5.78085 17.8507 5.76481 17.8507 5.74877 17.8507C5.73273 17.8507 5.7167 17.8507 5.70067 17.8507C5.68464 17.8507 5.66862 17.8507 5.6526 17.8507C5.63659 17.8507 5.62057 17.8507 5.60457 17.8507C5.58856 17.8507 5.57257 17.8507 5.55657 17.8507C5.54058 17.8507 5.52459 17.8507 5.50861 17.8507C5.49263 17.8507 5.47665 17.8507 5.46068 17.8507C5.44471 17.8507 5.42875 17.8507 5.4128 17.8507C5.39684 17.8507 5.38089 17.8507 5.36494 17.8507C5.349 17.8507 5.33306 17.8507 5.31713 17.8507C5.3012 17.8507 5.28528 17.8507 5.26936 17.8507C5.25345 17.8507 5.23754 17.8507 5.22163 17.8507C5.20573 17.8507 5.18983 17.8507 5.17394 17.8507C5.15805 17.8507 5.14217 17.8507 5.1263 17.8507C5.11042 17.8507 5.09455 17.8507 5.07869 17.8507C5.06283 17.8507 5.04698 17.8507 5.03113 17.8507C5.01529 17.8507 4.99945 17.8507 4.98362 17.8507C4.96779 17.8507 4.95197 17.8507 4.93615 17.8507C4.92034 17.8507 4.90453 17.8507 4.88873 17.8507C4.87293 17.8507 4.85714 17.8507 4.84135 17.8507C4.82557 17.8507 4.8098 17.8507 4.79403 17.8507C4.77826 17.8507 4.7625 17.8507 4.74675 17.8507C4.731 17.8507 4.71526 17.8507 4.69952 17.8507C4.68379 17.8507 4.66806 17.8507 4.65235 17.8507C4.63663 17.8507 4.62092 17.8507 4.60522 17.8507C4.58952 17.8507 4.57383 17.8507 4.55815 17.8507C4.54247 17.8507 4.52679 17.8507 4.51113 17.8507C4.49547 17.8507 4.47981 17.8507 4.46416 17.8507C4.44852 17.8507 4.43288 17.8507 4.41725 17.8507C4.40163 17.8507 4.38601 17.8507 4.3704 17.8507C4.35479 17.8507 4.33919 17.8507 4.3236 17.8507C4.30801 17.8507 4.29243 17.8507 4.27686 17.8507C4.26129 17.8507 4.24573 17.8507 4.23018 17.8507C4.21463 17.8507 4.19909 17.8507 4.18356 17.8507C4.16803 17.8507 4.1525 17.8507 4.13699 17.8507C4.12148 17.8507 4.10598 17.8507 4.09049 17.8507C4.075 17.8507 4.05952 17.8507 4.04405 17.8507C4.02858 17.8507 4.01312 17.8507 3.99767 17.8507C3.98222 17.8507 3.96679 17.8507 3.95136 17.8507C3.93593 17.8507 3.92051 17.8507 3.90511 17.8507C3.8897 17.8507 3.87431 17.8507 3.85892 17.8507C3.84354 17.8507 3.82816 17.8507 3.8128 17.8507C3.79744 17.8507 3.78209 17.8507 3.76675 17.8507C3.75141 17.8507 3.73608 17.8507 3.72076 17.8507C3.70545 17.8507 3.69014 17.8507 3.67485 17.8507C3.65955 17.8507 3.64427 17.8507 3.629 17.8507C3.61373 17.8507 3.59847 17.8507 3.58322 17.8507C3.56797 17.8507 3.55274 17.8507 3.53751 17.8507C3.52229 17.8507 3.50708 17.8507 3.49188 17.8507C3.47668 17.8507 3.46149 17.8507 3.44631 17.8507C3.43114 17.8507 3.41597 17.8507 3.40082 17.8507C3.38567 17.8507 3.37053 17.8507 3.35541 17.8507C3.34028 17.8507 3.32517 17.8507 3.31007 17.8507C3.29497 17.8507 3.27988 17.8507 3.2648 17.8507C3.24973 17.8507 3.23466 17.8507 3.21961 17.8507C3.20456 17.8507 3.18953 17.8507 3.1745 17.8507C3.15948 17.8507 3.14447 17.8507 3.12947 17.8507C3.11447 17.8507 3.09949 17.8507 3.08452 17.8507C3.06955 17.8507 3.05459 17.8507 3.03965 17.8507C3.0247 17.8507 3.00977 17.8507 2.99485 17.8507C2.97994 17.8507 2.96503 17.8507 2.95014 17.8507C2.93525 17.8507 2.92038 17.8507 2.90552 17.8507C2.89065 17.8507 2.87581 17.8507 2.86097 17.8507C2.84614 17.8507 2.83132 17.8507 2.81651 17.8507C2.80171 17.8507 2.78691 17.8507 2.77214 17.8507C2.75736 17.8507 2.7426 17.8507 2.72785 17.8507C2.7131 17.8507 2.69836 17.8507 2.68365 17.8507C2.66893 17.8507 2.65422 17.8507 2.63953 17.8507C2.62484 17.8507 2.61016 17.8507 2.5955 17.8507C2.58084 17.8507 2.5662 17.8507 2.55157 17.8507C2.53694 17.8507 2.52232 17.8507 2.50772 17.8507C2.49312 17.8507 2.47853 17.8507 2.46396 17.8507C2.44939 17.8507 2.43484 17.8507 2.4203 17.8507C2.40576 17.8507 2.39124 17.8507 2.37673 17.8507C2.36222 17.8507 2.34773 17.8507 2.33325 17.8507C2.31877 17.8507 2.30431 17.8507 2.28987 17.8507C2.27542 17.8507 2.26099 17.8507 2.24658 17.8507C2.23216 17.8507 2.21776 17.8507 2.20338 17.8507C2.189 17.8507 2.17464 17.8507 2.16029 17.8507C2.14594 17.8507 2.1316 17.8507 2.11729 17.8507C2.10297 17.8507 2.08867 17.8507 2.07439 17.8507C2.0601 17.8507 2.04584 17.8507 2.03159 17.8507C2.01734 17.8507 2.0031 17.8507 1.98889 17.8507C1.97467 17.8507 1.96047 17.8507 1.94629 17.8507C1.9321 17.8507 1.91794 17.8507 1.90379 17.8507C1.88964 17.8507 1.87551 17.8507 1.86139 17.8507C1.84728 17.8507 1.83318 17.8507 1.8191 17.8507C1.80502 17.8507 1.79096 17.8507 1.77691 17.8507C1.76287 17.8507 1.74884 17.8507 1.73483 17.8507C1.72082 17.8507 1.70683 17.8507 1.69285 17.8507C1.67888 17.8507 1.66492 17.8507 1.65099 17.8507C1.63705 17.8507 1.62313 17.8507 1.60922 17.8507C1.59532 17.8507 1.58144 17.8507 1.56757 17.8507C1.5537 17.8507 1.53986 17.8507 1.52603 17.8507C1.5122 17.8507 1.49838 17.8507 1.48459 17.8507C1.4708 17.8507 1.45702 17.8507 1.44327 17.8507C1.42951 17.8507 1.41578 17.8507 1.40206 17.8507C1.38834 17.8507 1.37464 17.8507 1.36096 17.8507C1.34728 17.8507 1.33362 17.8507 1.31997 17.8507C1.30633 17.8507 1.29271 17.8507 1.2791 17.8507C1.2655 17.8507 1.25191 17.8507 1.23835 17.8507C1.22478 17.8507 1.21124 17.8507 1.19771 17.8507C1.18418 17.8507 1.17067 17.8507 1.15719 17.8507C1.1437 17.8507 1.13023 17.8507 1.11678 17.8507C1.10333 17.8507 1.0899 17.8507 1.07649 17.8507C1.06309 17.8507 1.0497 17.8507 1.03633 17.8507C1.02296 17.8507 1.00961 17.8507 0.996281 17.8507C0.982952 17.8507 0.969644 17.8507 0.956355 17.8507C0.943067 17.8507 0.929799 17.8507 0.916552 17.8507C0.903304 17.8507 0.890077 17.8507 0.876871 17.8507C0.863664 17.8507 0.850478 17.8507 0.837313 17.8507C0.824148 17.8507 0.811003 17.8507 0.79788 17.8507C0.784756 17.8507 0.771654 17.8507 0.758572 17.8507C0.74549 17.8507 0.73243 17.8507 0.71939 17.8507C0.706351 17.8507 0.693332 17.8507 0.680335 17.8507C0.667338 17.8507 0.654362 17.8507 0.641408 17.8507C0.628454 17.8507 0.615521 17.8507 0.602609 17.8507C0.589698 17.8507 0.576808 17.8507 0.56394 17.8507C0.551072 17.8507 0.538226 17.8507 0.525401 17.8507C0.512577 17.8507 0.499774 17.8507 0.486993 17.8507C0.474212 17.8507 0.461454 17.8507 0.448717 17.8507C0.435981 17.8507 0.423266 17.8507 0.410574 17.8507C0.397882 17.8507 0.385212 17.8507 0.372564 17.8507C0.359917 17.8507 0.347292 17.8507 0.334689 17.8507C0.322087 17.8507 0.309507 17.8507 0.296949 17.8507C0.284392 17.8507 0.271857 17.8507 0.259345 17.8507C0.246834 17.8507 0.234345 17.8507 0.221879 17.8507C0.209413 17.8507 0.196969 17.8507 0.18455 17.8507C0.17213 17.8507 0.159733 17.8507 0.147359 17.8507C0.134985 17.8507 0.122635 17.8507 0.110308 17.8507C0.097981 17.8507 0.0856774 17.8507 0.0733973 17.8507C0.0611172 17.8507 0.0488606 17.8507 0.0366277 17.8507C0.0243947 17.8507 0.0121855 17.8507 0 17.8507V18.6007Z" fill="#004B8D"/>
</svg>
