<svg width="32" height="28" viewBox="0 0 32 28" fill="none" xmlns="http://www.w3.org/2000/svg">
<path d="M6.64122 9.35076H0V18.064H6.64122L19.3922 27.1491V0L6.64122 9.35076Z" fill="white"/>
<path d="M29.363 13.5745C29.363 8.9956 25.6511 5.28371 21.0723 5.28371V3.20044C26.8017 3.20044 31.4463 7.84505 31.4463 13.5745C31.4463 19.3039 26.8017 23.9485 21.0723 23.9485V21.8652C25.6511 21.8652 29.363 18.1533 29.363 13.5745Z" fill="white"/>
<path d="M25.1965 13.5744C25.1965 11.2967 23.35 9.45021 21.0723 9.45021V7.36694C24.5006 7.36694 27.2798 10.1461 27.2798 13.5744C27.2798 17.0027 24.5006 19.7819 21.0723 19.7819V17.6987C23.35 17.6987 25.1965 15.8522 25.1965 13.5744Z" fill="white"/>
</svg>
