<svg width="35" height="35" viewBox="0 0 35 35" fill="none" xmlns="http://www.w3.org/2000/svg">
<path d="M0 29.3339C0.229568 28.9567 0.589046 28.8615 1.00013 28.8624C2.34373 28.865 3.68732 28.8641 5.03003 28.8624C5.44557 28.8624 5.45624 28.8508 5.45713 28.4272C5.45891 27.8613 5.43578 27.2936 5.46514 26.7295C5.4865 26.33 5.36281 26.039 5.06651 25.7685C4.17582 24.9588 3.77097 23.9231 3.80567 22.7325C3.83503 21.744 4.19273 20.8693 4.88766 20.1512C5.65823 19.3558 6.66014 19.3584 7.4396 20.1468C8.84816 21.5714 8.93536 23.9587 7.57574 25.4393C7.09258 25.9652 6.82653 26.4893 6.91551 27.2091C6.96623 27.6246 6.93598 28.0518 6.92085 28.4735C6.91017 28.7547 7.00182 28.8713 7.29991 28.8677C8.36588 28.8552 9.43186 28.857 10.4978 28.8668C10.7577 28.8695 10.8475 28.7787 10.844 28.518C10.8324 27.5633 10.8386 26.6085 10.8404 25.6537C10.8413 24.9731 11.1243 24.675 11.8085 24.6696C12.9857 24.6598 14.162 24.667 15.3392 24.6661C15.7797 24.6661 15.7886 24.6572 15.7886 24.2212C15.7895 22.9443 15.7841 21.6683 15.793 20.3915C15.7948 20.1379 15.7121 19.9537 15.5341 19.7758C14.954 19.1947 14.3533 18.6297 13.8248 18.0042C12.6013 16.5547 12.7045 14.3044 14.0241 12.951C14.6523 12.3077 15.2912 11.675 15.9301 11.0424C16.3242 10.6518 16.7229 10.6544 17.1206 11.0486C17.7123 11.6341 18.3005 12.2232 18.8877 12.8149C20.4734 14.4121 20.4778 16.7878 18.8966 18.3966C18.4295 18.8717 17.9428 19.3282 17.4925 19.8176C17.3653 19.9564 17.2692 20.1815 17.2665 20.3684C17.247 21.6666 17.263 22.9657 17.2514 24.2648C17.2487 24.5611 17.3351 24.6776 17.6483 24.6741C18.8806 24.6598 20.113 24.6625 21.3454 24.6723C21.6194 24.675 21.7155 24.5824 21.712 24.3066C21.6995 23.3634 21.7049 22.4193 21.7084 21.4762C21.7111 20.7883 22.0163 20.4742 22.7041 20.4707C24.0139 20.4636 25.3245 20.4609 26.6343 20.4742C26.9493 20.4778 27.0677 20.3826 27.0597 20.0578C27.041 19.3148 27.0481 18.5701 27.0561 17.8271C27.0588 17.5708 26.96 17.4738 26.7028 17.4721C26.0933 17.4658 25.4829 17.4569 24.8743 17.4151C23.0618 17.2914 21.5331 15.6596 21.5198 13.8453C21.5135 12.9572 21.5135 12.0692 21.5207 11.1812C21.5242 10.7586 21.7689 10.4462 22.1738 10.4382C23.205 10.4178 24.2426 10.3777 25.2676 10.4685C25.8549 10.521 26.4217 10.8119 27.0534 11.0139C27.0534 10.8911 27.0276 10.7069 27.0579 10.5325C27.2483 9.42119 26.8639 8.57855 25.9732 7.88718C25.3014 7.36576 24.7818 6.68595 24.5433 5.84332C24.1269 4.37159 24.5228 3.10541 25.5639 2.02164C26.0711 1.4931 26.5943 0.979689 27.1175 0.467166C27.606 -0.012434 27.9566 -0.047136 28.4424 0.419117C29.1382 1.08735 29.8438 1.75648 30.4533 2.50035C31.6225 3.92581 31.4686 6.05954 30.1642 7.3969C29.6988 7.87383 29.2112 8.32852 28.7601 8.81791C28.6319 8.95671 28.5447 9.17916 28.5314 9.36869C28.4985 9.83228 28.5189 10.3003 28.5216 10.7666C28.5216 10.8716 28.5394 10.9766 28.5527 11.1251C28.8517 10.9748 29.0937 10.8013 29.3616 10.7292C29.8599 10.5948 30.3715 10.4631 30.8831 10.4302C31.6572 10.3813 32.4367 10.4142 33.2135 10.4187C33.8239 10.4222 34.1069 10.7061 34.1095 11.3191C34.1131 12.1404 34.1158 12.9617 34.1095 13.7839C34.0944 15.6471 32.6342 17.2469 30.7763 17.4133C30.1704 17.4676 29.5582 17.4596 28.9487 17.4738C28.5394 17.4836 28.5216 17.4943 28.5207 17.9143C28.5189 18.6244 28.5358 19.3353 28.5136 20.0454C28.5029 20.3906 28.6319 20.4787 28.9594 20.4751C30.3475 20.46 31.7347 20.4627 33.1227 20.4751C33.3479 20.4769 33.5908 20.5285 33.7919 20.6246C34.0677 20.7563 34.1362 21.0295 34.1353 21.3293C34.13 23.0057 34.1327 24.6821 34.1327 26.3576C34.1327 28.6221 34.1247 30.8866 34.1398 33.1512C34.1425 33.5632 34.0526 33.8915 33.71 34.1317H0C0 32.5328 0 30.9347 0 29.3357V29.3339ZM32.6227 27.3524C32.6227 25.7107 32.6164 24.0681 32.628 22.4265C32.6298 22.1337 32.5631 22.0198 32.2418 22.0216C29.3785 22.0332 26.516 22.0332 23.6526 22.0216C23.3341 22.0207 23.2647 22.1319 23.2656 22.4256C23.2736 25.6982 23.2736 28.9718 23.2656 32.2445C23.2656 32.5372 23.3314 32.6502 23.6517 32.6493C26.5151 32.6378 29.3776 32.6378 32.241 32.6493C32.5604 32.6502 32.6298 32.5399 32.6271 32.2454C32.6156 30.6144 32.6218 28.9834 32.6218 27.3524H32.6227ZM17.0218 32.6422C18.4544 32.6422 19.8861 32.6333 21.3187 32.6493C21.6328 32.6529 21.7146 32.5479 21.7129 32.2489C21.7022 30.3732 21.7022 28.4966 21.7129 26.621C21.7146 26.322 21.6328 26.2188 21.3187 26.2197C18.4767 26.2303 15.6338 26.2303 12.7917 26.2197C12.4785 26.2188 12.3958 26.3211 12.3976 26.621C12.4082 28.4966 12.4082 30.3732 12.3976 32.2489C12.3958 32.5479 12.4776 32.6538 12.7917 32.6502C14.2021 32.6342 15.6115 32.6431 17.0218 32.6431V32.6422ZM6.16363 32.6422C7.60511 32.6422 9.04747 32.6378 10.4889 32.6467C10.7363 32.6484 10.8546 32.5915 10.8449 32.3139C10.8262 31.7933 10.8306 31.271 10.8431 30.7505C10.8484 30.5111 10.7746 30.4177 10.5219 30.4177C7.61578 30.4239 4.7097 30.4239 1.80362 30.4177C1.55003 30.4177 1.47707 30.5111 1.48418 30.7505C1.49753 31.2381 1.50732 31.7275 1.48151 32.2142C1.46372 32.5452 1.55804 32.6556 1.90417 32.6502C3.3234 32.6306 4.74352 32.6422 6.16274 32.6422H6.16363ZM17.255 17.8378C17.3048 17.8689 17.3537 17.9001 17.4036 17.9321C17.5317 17.7666 17.6492 17.5904 17.7906 17.4365C18.9038 16.2308 18.8851 14.8819 17.7328 13.726C17.4196 13.4119 17.0948 13.1085 16.7958 12.7819C16.6045 12.5728 16.4657 12.547 16.2602 12.7704C15.9078 13.1539 15.5216 13.5062 15.1604 13.8808C14.0348 15.05 14.2288 16.7905 15.7886 17.8787C15.7886 17.7283 15.7886 17.6118 15.7886 17.4952C15.7895 16.9409 15.7832 16.3865 15.7939 15.8322C15.8001 15.4994 15.9781 15.2734 16.2878 15.1488C16.5716 15.0349 16.8421 15.1088 17.0138 15.3214C17.1482 15.4869 17.2336 15.7343 17.2443 15.9496C17.2737 16.5769 17.255 17.2078 17.255 17.8369V17.8378ZM28.5207 6.81142L28.7085 6.91641C28.833 6.74735 28.9451 6.56761 29.0831 6.41101C29.9408 5.44024 30.0182 4.1794 29.2423 3.32519C28.8473 2.89008 28.4122 2.49323 28.0037 2.07058C27.8614 1.92287 27.7581 1.93266 27.6202 2.07503C27.2661 2.44251 26.9066 2.80466 26.5382 3.15791C26.1521 3.52718 25.9412 3.97474 25.8664 4.49794C25.7445 5.35126 26.3185 6.49465 27.0534 6.79273C27.0534 6.54804 27.0481 6.31758 27.0543 6.08623C27.0641 5.75434 27.0543 5.41888 27.1059 5.09322C27.1655 4.72039 27.5339 4.46591 27.8783 4.50239C28.2404 4.54065 28.5038 4.83518 28.5163 5.23114C28.5252 5.51943 28.5189 5.80773 28.5198 6.09602C28.5198 6.33449 28.5198 6.57206 28.5198 6.81053L28.5207 6.81142ZM29.6107 15.8206L29.7291 16.0155C30.0431 15.9932 30.3581 15.9825 30.6705 15.947C31.7569 15.8242 32.6031 14.913 32.6405 13.8132C32.6592 13.2811 32.6378 12.7481 32.6476 12.216C32.652 11.9749 32.5577 11.8761 32.3148 11.8806C31.7827 11.8904 31.2497 11.8699 30.7176 11.8877C29.7006 11.9215 28.8046 12.6698 28.6132 13.6611C28.5412 14.0375 28.5465 14.4281 28.5163 14.8125L28.6293 14.84C28.7174 14.76 28.8081 14.6834 28.8926 14.5998C29.2948 14.2021 29.6872 13.7936 30.0983 13.4048C30.3937 13.1254 30.8039 13.1423 31.0887 13.4164C31.3841 13.7011 31.4072 14.1202 31.1243 14.4307C30.8849 14.6923 30.634 14.945 30.3733 15.1853C30.1304 15.4086 29.867 15.6088 29.6125 15.8197L29.6107 15.8206ZM26.9431 14.8338L27.0534 14.7778C27.0534 14.558 27.0552 14.3391 27.0534 14.1193C27.0436 12.8816 26.08 11.9064 24.8378 11.885C24.3502 11.877 23.8608 11.8984 23.3732 11.8779C23.0556 11.8646 22.9701 11.9998 22.9799 12.2917C22.9959 12.7793 22.9799 13.2678 22.9853 13.7554C22.9942 14.6852 23.5627 15.5136 24.4419 15.8268C24.917 15.9959 25.4144 16.0635 25.9474 15.9114C25.5532 15.4602 25.1306 15.0572 24.715 14.647C24.2577 14.1958 24.1883 13.7287 24.5211 13.4066C24.8476 13.0907 25.2987 13.1619 25.7383 13.605C26.1423 14.0116 26.5409 14.4236 26.9422 14.8329L26.9431 14.8338ZM7.06411 23.1525C7.06233 22.2476 6.81319 21.6016 6.44748 21.2226C6.25261 21.0206 6.08355 21.0126 5.8878 21.2226C5.04872 22.1221 5.08876 23.7434 5.9661 24.6162C6.12626 24.7755 6.22681 24.7542 6.37185 24.6056C6.847 24.1188 7.05432 23.5325 7.06233 23.1525H7.06411Z" fill="#4D8AAB"/>
<path d="M0 17.0113C0.144147 16.6856 0.434222 16.5592 0.745651 16.4516C2.66762 15.7878 4.53797 15.0083 6.33091 14.0411C9.68367 12.2322 12.6298 9.90801 15.2102 7.10871C16.6428 5.55423 17.9161 3.87786 19.1138 2.14008C19.1671 2.06267 19.2099 1.97814 19.2908 1.84111C18.8913 1.90874 18.5576 1.97369 18.2204 2.01907C17.9152 2.06 17.6011 2.12941 17.3306 1.8945C17.1037 1.69697 16.9907 1.45138 17.053 1.15419C17.117 0.847211 17.3084 0.616753 17.6171 0.560696C18.6964 0.363161 19.7767 0.170965 20.8622 0.0143611C21.4094 -0.063941 21.7013 0.178973 21.8054 0.71819C21.9994 1.71921 22.1836 2.72112 22.366 3.72392C22.4416 4.13946 22.1942 4.53453 21.8179 4.62618C21.381 4.73206 20.9814 4.50961 20.8684 4.06294C20.7661 3.65808 20.7012 3.24432 20.6024 2.74604C20.4289 2.98094 20.2963 3.15 20.1762 3.32707C18.4722 5.81761 16.5511 8.12397 14.3418 10.1838C10.8627 13.4272 6.88081 15.8519 2.42025 17.4962C2.03497 17.6386 1.6488 17.7765 1.26262 17.9153C0.636206 18.1404 0.434222 18.0915 0.0017796 17.6119V17.0121L0 17.0113Z" fill="#4D8AAB"/>
</svg>
