<svg width="34" height="29" viewBox="0 0 34 29" fill="none" xmlns="http://www.w3.org/2000/svg">
<path d="M10.2366 23.6306C11.3202 23.3036 12.047 23.8317 12.6966 24.6668C12.3541 24.6668 12.0349 24.6668 11.7157 24.6668C11.0816 24.6668 10.4476 24.669 9.81462 24.6668C9.29655 24.6635 9.09772 24.4845 9.10545 23.983C9.12644 22.6917 8.98063 21.3871 9.31975 20.1156C10.019 17.4899 11.6284 15.6584 14.1502 14.6355C14.2253 14.6057 14.2971 14.567 14.4186 14.5096C12.7949 13.3685 11.9454 11.8529 12.0857 9.86784C12.1774 8.57319 12.7363 7.49064 13.6995 6.62239C15.6658 4.84943 18.7123 4.97094 20.5205 6.89302C21.5865 8.0275 22.0217 9.3851 21.8328 10.9184C21.6428 12.4527 20.8309 13.6247 19.5065 14.5018C19.8114 14.6344 20.0654 14.7272 20.304 14.8509C23.1871 16.3377 24.7214 18.6917 24.8318 21.9449C24.8561 22.6464 24.8374 23.35 24.8352 24.0537C24.8341 24.4348 24.6407 24.6579 24.2586 24.6624C23.2677 24.6734 22.2769 24.6657 21.233 24.6657C21.8969 23.877 22.5817 23.2705 23.6632 23.6361C23.9769 21.1407 23.5317 18.6255 21.1921 16.7211C19.0492 14.9768 16.0579 14.7139 13.6786 16.0958C10.8541 17.7362 9.9306 20.331 10.2366 23.6295V23.6306ZM16.8775 14.1218C18.9034 14.1671 20.6398 12.4947 20.6884 10.4511C20.7393 8.2904 19.1166 6.56053 16.9836 6.50529C14.9842 6.45337 13.2102 8.15895 13.1649 10.1793C13.1163 12.329 14.7589 14.0732 16.8775 14.1218Z" fill="#4D8AAB"/>
<path d="M26.0506 22.0912H30.2105C30.2105 21.5334 30.2083 21.0142 30.2116 20.495C30.2116 20.358 30.1807 20.1747 30.2536 20.0951C30.4038 19.9305 30.6027 19.7383 30.8048 19.7074C31.102 19.6621 31.2875 19.9029 31.3052 20.1945C31.3317 20.6342 31.3185 21.0761 31.3218 21.5168C31.3229 21.6924 31.3218 21.8681 31.3218 22.0691H32.8086C33.0251 19.8797 32.5203 17.9499 30.7043 16.5934C28.5658 14.995 26.34 15.0878 24.1186 16.5117C23.8888 16.2443 23.6657 15.9836 23.3951 15.6677C23.9551 15.3529 24.4953 15.0502 25.0641 14.7299C23.9109 13.9069 23.2934 12.7824 23.2758 11.3717C23.2614 10.2505 23.6635 9.26849 24.4522 8.46099C26.024 6.85152 28.5945 6.80734 30.2183 8.37594C31.155 9.28064 31.5714 10.3996 31.461 11.7009C31.3516 12.9856 30.7021 13.9699 29.7256 14.7111C30.332 15.0955 30.9584 15.4192 31.4985 15.85C33.098 17.1269 33.9033 18.8248 33.9861 20.8629C34.0093 21.4273 33.9994 21.9929 33.9883 22.5574C33.9795 22.9639 33.7729 23.1793 33.3764 23.1804C30.9926 23.1859 28.6088 23.1837 26.224 23.1815C26.1721 23.1815 26.1201 23.1616 26.0517 23.1484V22.0912H26.0506ZM30.3773 11.3055C30.3828 9.64628 29.0518 8.29751 27.4004 8.29198C25.7402 8.28535 24.3992 9.60872 24.3848 11.2668C24.3704 12.9525 25.6706 14.2902 27.3297 14.299C29.012 14.3079 30.3707 12.9735 30.3762 11.3055H30.3773Z" fill="#4D8AAB"/>
<path d="M3.74983 22.0931H7.91975V23.1646C7.80045 23.1713 7.66901 23.1845 7.53756 23.1845C5.29188 23.1856 3.04619 23.1856 0.800513 23.1845C0.146582 23.1845 -0.0257381 23.0354 0.00298185 22.3848C0.048271 21.3431 -0.0069597 20.2694 0.228323 19.2675C0.712144 17.2117 2.05425 15.7967 3.96523 14.9174C4.06354 14.8721 4.16517 14.8323 4.31871 14.7671C3.00532 13.8072 2.37569 12.5402 2.51046 10.9473C2.60324 9.84372 3.10363 8.92465 3.94535 8.2C5.64204 6.74077 8.20253 6.94734 9.69597 8.64628C11.0414 10.1773 11.248 12.95 8.92274 14.734C9.46732 15.0356 10.0075 15.3349 10.5819 15.6531C10.3179 15.9668 10.0992 16.2275 9.87161 16.4981C7.65796 15.0775 5.43216 14.998 3.29473 16.5732C1.4666 17.9198 0.947427 19.8485 1.16835 22.0611H2.65737C2.65737 21.5099 2.64964 20.9509 2.66179 20.3931C2.6651 20.234 2.67283 20.0164 2.77004 19.9324C2.91695 19.8054 3.18979 19.6673 3.32677 19.7259C3.50792 19.8032 3.71007 20.0584 3.72774 20.2528C3.77966 20.8394 3.74652 21.4326 3.74652 22.092L3.74983 22.0931ZM9.54906 11.2996C9.55348 9.64267 8.2191 8.29611 6.5666 8.29059C4.90747 8.28617 3.56536 9.61506 3.55653 11.2709C3.54769 12.9588 4.84672 14.2921 6.50695 14.2977C8.18928 14.3032 9.54354 12.9677 9.54906 11.2985V11.2996Z" fill="#4D8AAB"/>
<path d="M22.1966 22.0824C22.1237 22.1907 22.0387 22.3807 21.8984 22.5121C21.3162 23.0589 20.7319 23.6035 20.1188 24.115C19.8548 24.3348 19.8151 24.559 19.8736 24.865C20.0194 25.635 20.1454 26.4082 20.2823 27.1804C20.3354 27.4797 20.332 27.7625 20.0526 27.9591C19.7731 28.1558 19.5301 28.0088 19.2871 27.8686C18.5834 27.4643 17.8754 27.0688 17.1817 26.6479C16.9619 26.5143 16.8006 26.5231 16.5863 26.6523C15.9025 27.0622 15.2044 27.4488 14.514 27.8487C14.239 28.0077 13.9087 28.158 13.6834 27.9017C13.5265 27.7227 13.4735 27.3726 13.5121 27.1207C13.6325 26.3331 13.8115 25.5554 13.9816 24.7755C14.0368 24.5226 13.9971 24.3469 13.7861 24.1658C13.1797 23.6466 12.5997 23.0976 12.0043 22.5652C11.7934 22.3763 11.5647 22.1874 11.6807 21.8714C11.7989 21.5489 12.0828 21.4594 12.4064 21.4274C13.1863 21.35 13.9639 21.2429 14.7449 21.1689C15.0365 21.1413 15.2033 21.0297 15.3204 20.7491C15.6275 20.0134 15.9765 19.2954 16.3002 18.5674C16.4272 18.2802 16.6128 18.0692 16.9409 18.067C17.2778 18.0648 17.4368 18.2946 17.5617 18.5818C17.8798 19.3131 18.2266 20.0311 18.5404 20.7635C18.6442 21.0043 18.7701 21.1258 19.0452 21.1512C19.8946 21.2307 20.7396 21.3467 21.588 21.4351C21.937 21.4716 22.1524 21.6229 22.1977 22.0791L22.1966 22.0824ZM14.8587 26.3574C15.4728 26.0227 16.0075 25.7443 16.53 25.4428C16.8514 25.2572 17.1408 25.2594 17.4578 25.4527C17.9593 25.7598 18.4752 26.0448 19.0739 26.3905C18.9369 25.6968 18.8331 25.0926 18.6928 24.4972C18.6133 24.1569 18.6983 23.9371 18.9712 23.7129C19.4715 23.302 19.9333 22.8446 20.4767 22.3453C19.793 22.2592 19.223 22.1631 18.6486 22.1222C18.2079 22.0913 17.945 21.9002 17.7793 21.4936C17.555 20.9446 17.2866 20.4144 17.0071 19.8102C16.7144 20.4509 16.446 21.0076 16.2063 21.5776C16.0605 21.9245 15.8252 22.0802 15.4541 22.1134C14.8465 22.1686 14.2412 22.2603 13.553 22.3464C14.0258 22.7828 14.408 23.1804 14.8366 23.5196C15.2398 23.8388 15.3348 24.1945 15.2044 24.6783C15.0641 25.2019 14.9824 25.7421 14.8587 26.3574Z" fill="#4D8AAB"/>
<path d="M17.523 1.85825C17.523 2.25703 17.5319 2.65581 17.5208 3.05458C17.5098 3.45667 17.2999 3.69638 16.9773 3.70632C16.6272 3.71737 16.4173 3.48539 16.4129 3.04464C16.404 2.24709 16.404 1.44843 16.4129 0.650873C16.4173 0.242154 16.6239 0.00907315 16.9508 0.000235982C17.2955 -0.00860119 17.5109 0.231107 17.5208 0.661919C17.5307 1.0607 17.523 1.45947 17.523 1.85825Z" fill="#4D8AAB"/>
<path d="M19.9243 4.50417C19.3974 4.5097 19.097 4.07667 19.3024 3.68894C19.72 2.89912 20.174 2.12697 20.639 1.36366C20.7948 1.10849 21.061 1.00686 21.357 1.17477C21.6365 1.33384 21.7326 1.6575 21.5647 1.95796C21.1361 2.7268 20.7009 3.49232 20.2469 4.24789C20.1663 4.38156 19.9873 4.45557 19.9232 4.50417H19.9243Z" fill="#4D8AAB"/>
<path d="M14.7201 4.02995C14.6086 4.15257 14.4849 4.40222 14.3092 4.44751C14.1336 4.4928 13.8066 4.39448 13.7149 4.25199C13.2344 3.50083 12.7937 2.72205 12.3673 1.93665C12.2149 1.65607 12.2811 1.3556 12.5772 1.18328C12.86 1.01869 13.1439 1.11479 13.3007 1.36996C13.7657 2.13217 14.1999 2.91315 14.6406 3.68972C14.6793 3.75821 14.6793 3.84879 14.7201 4.02995Z" fill="#4D8AAB"/>
</svg>
