<svg width="38" height="42" viewBox="0 0 38 42" fill="none" xmlns="http://www.w3.org/2000/svg">
<path d="M9.70391 0.00012207C10.0362 0.210399 10.143 0.512196 10.119 0.897886C10.094 1.30319 10.1223 1.71176 10.1092 2.11815C10.0961 2.53216 9.83029 2.78275 9.44242 2.77404C9.07635 2.76532 8.8214 2.51473 8.81268 2.12142C8.8007 1.63331 8.76801 1.13976 8.82793 0.659281C8.85626 0.426124 9.07961 0.219115 9.21471 0.00012207H9.70391Z" fill="#4D8AAB"/>
<path d="M10.9001 38.5194C10.0775 38.6033 9.29737 38.7144 8.51401 38.7525C7.98995 38.7776 7.45064 38.7525 6.93639 38.6556C5.40126 38.3647 4.68872 37.2501 5.01122 35.7237C5.01666 35.6975 5.02647 35.6714 5.03518 35.6463C5.1997 35.1844 5.21822 34.7976 4.79549 34.3967C4.43813 34.0578 4.39455 33.5392 4.61681 33.0663C4.70724 32.8757 4.68654 32.7515 4.56125 32.6C4.47626 32.4976 4.37167 32.368 4.36949 32.2481C4.35751 31.663 3.99143 31.4855 3.50115 31.3035C2.72541 31.0159 2.39964 30.2467 2.66549 29.423C2.8093 28.9796 3.04791 28.5579 3.29305 28.157C3.59049 27.6721 3.95003 27.2254 4.2649 26.7504C4.94367 25.7284 5.29122 24.616 5.25854 23.3729C5.20842 21.476 5.62897 19.6849 6.57903 18.0277C6.63242 17.9351 6.64331 17.8033 6.63242 17.6932C6.57576 17.131 6.45156 16.5699 6.45265 16.0077C6.45265 15.1743 6.21186 14.4672 5.64096 13.8614C5.325 13.5258 5.01666 13.1783 4.73775 12.8111C2.24275 9.5262 4.14287 4.58305 8.21112 3.75938C11.5178 3.08932 14.6229 5.17466 15.2124 8.49007C15.4466 9.80947 15.257 11.0842 14.526 12.3437C16.3934 11.8861 18.2053 11.7837 20.0672 11.9722C20.0149 11.8425 19.979 11.7445 19.9376 11.6486C19.7317 11.1703 19.821 10.741 20.1718 10.3717C20.5368 9.98707 20.9127 9.61336 21.2951 9.24728C21.7004 8.85941 22.1678 8.73521 22.632 9.04681C23.3336 9.51966 23.9241 9.41943 24.6737 9.10456C25.3525 8.8191 25.7458 8.4868 25.9158 7.77207C26.0737 7.10311 26.4812 6.86341 27.1785 6.86015C27.6405 6.85797 28.1024 6.8547 28.5644 6.86124C29.1353 6.86995 29.5885 7.12163 29.6964 7.66857C29.8598 8.49987 30.3523 8.84961 31.1008 9.1623C31.7828 9.44666 32.2949 9.4848 32.9181 9.09148C33.4923 8.72867 33.9346 8.83762 34.4227 9.31265C34.7735 9.65367 35.1222 9.99687 35.4577 10.3531C35.8521 10.7715 35.9644 11.2542 35.6528 11.7325C35.2246 12.3905 35.2562 12.9429 35.5765 13.6685C35.8859 14.368 36.203 14.8322 36.9842 14.9967C37.5943 15.1252 37.8307 15.5425 37.834 16.1712C37.8372 16.6734 37.8394 17.1768 37.8329 17.6802C37.8264 18.2108 37.5845 18.6411 37.0648 18.749C36.2324 18.9222 35.8489 19.3983 35.5406 20.1773C35.2736 20.8507 35.23 21.3529 35.6114 21.9652C35.9774 22.5525 35.8663 23.0068 35.3771 23.5069C35.0546 23.837 34.7299 24.1661 34.3966 24.4864C33.9411 24.9244 33.4803 25.0388 32.9562 24.7043C32.3112 24.2924 31.7763 24.3317 31.0637 24.6269C30.3152 24.9374 29.9884 25.3689 29.6746 26.0912C29.1767 27.2342 28.4358 28.2725 27.7723 29.3391C27.4498 29.8577 27.0837 30.3491 26.7166 30.8372C25.1498 32.9214 24.8328 35.1996 25.6467 37.6543C25.821 38.1816 26.0084 38.7046 26.2023 39.2254C26.7111 40.5917 25.9201 41.7564 24.4722 41.7574C20.721 41.7596 16.9708 41.7585 13.2196 41.7574C12.1955 41.7574 11.5701 41.2606 11.3271 40.2648C11.1866 39.6874 11.0417 39.1099 10.8968 38.5227L10.9001 38.5194ZM20.1424 13.3395C18.1998 12.9745 15.5556 13.2839 13.394 14.0793C12.9756 14.2329 12.6978 14.477 12.6356 14.8877C12.5441 15.487 12.4951 16.0949 12.4788 16.7018C12.445 17.9297 11.6725 18.9854 10.4653 19.2436C9.50329 19.4484 8.52382 19.4637 7.61189 18.908C7.53453 19.0584 7.46372 19.1881 7.40052 19.321C6.78604 20.624 6.54307 21.9979 6.58775 23.4328C6.62697 24.6847 6.32953 25.8603 5.68563 26.9324C5.28033 27.6057 4.81183 28.2409 4.38474 28.9011C4.22349 29.1495 4.08513 29.4143 3.95874 29.6823C3.83345 29.9471 3.91843 30.1388 4.22023 30.1846C4.56887 30.2369 4.91861 30.2804 5.26943 30.3066C5.58975 30.3306 5.85886 30.4155 5.98415 30.7435C6.10291 31.0529 5.9896 31.3035 5.76298 31.5116C5.52982 31.7251 5.60173 31.8831 5.83707 32.0193C5.93077 32.0727 6.03536 32.1076 6.13015 32.1588C6.63677 32.4301 6.65747 33.0271 6.17155 33.3398C6.0626 33.4106 5.95038 33.4771 5.74991 33.6002C5.98306 33.7495 6.13995 33.8617 6.30774 33.9543C6.67491 34.1559 6.8002 34.4413 6.67055 34.8379C6.5823 35.1081 6.46245 35.3685 6.38509 35.642C6.03754 36.8753 6.43412 37.4626 7.7252 37.4288C8.85939 37.3983 9.9903 37.2272 11.119 37.0932C11.678 37.0267 11.9286 37.1618 12.0626 37.7088C12.2336 38.4061 12.3981 39.1055 12.567 39.8028C12.7108 40.3977 12.7849 40.4544 13.3983 40.4544C17.0264 40.4544 20.6545 40.4544 24.2826 40.4544C25.0376 40.4544 25.1847 40.2376 24.9058 39.537C24.3915 38.2459 24.0048 36.9211 23.9078 35.5287C23.7814 33.7103 24.3185 32.0716 25.3176 30.5724C25.9724 29.5897 26.6512 28.6233 27.3103 27.6438C27.4563 27.427 27.5675 27.1851 27.7178 26.9106C27.4705 26.9106 27.2951 26.9127 27.1197 26.9106C26.478 26.9029 26.065 26.6589 25.9234 26.0259C25.7578 25.2894 25.3492 24.9571 24.6585 24.664C23.9187 24.3502 23.3412 24.2717 22.6548 24.7228C22.1744 25.0377 21.7004 24.9167 21.2821 24.5158C20.929 24.177 20.5858 23.8283 20.2437 23.4786C19.7796 23.0046 19.6619 22.5568 20.0106 22.0088C20.4246 21.3595 20.3778 20.8245 20.077 20.1163C19.7698 19.3907 19.4277 18.9266 18.6334 18.774C18.0767 18.6673 17.8141 18.2184 17.7956 17.6605C17.7782 17.1452 17.7771 16.6277 17.7956 16.1113C17.8163 15.5545 18.0887 15.1645 18.6356 14.988C18.9189 14.8964 19.2054 14.8093 19.4811 14.6981C19.5791 14.6589 19.6924 14.5718 19.7306 14.4781C19.8788 14.1163 19.9997 13.7437 20.1424 13.3395ZM21.2047 11.228C21.3616 11.5364 21.5185 11.8512 21.6808 12.1617C21.8856 12.554 21.8573 12.9309 21.6721 13.3308C21.4106 13.8952 21.1709 14.4704 20.9563 15.0533C20.8103 15.4521 20.5739 15.7343 20.174 15.8737C19.9692 15.9446 19.7654 16.0306 19.5541 16.0666C19.1967 16.1265 19.1161 16.3237 19.1237 16.6625C19.1444 17.5625 19.1248 17.5756 19.9768 17.8371C20.4355 17.9776 20.7689 18.214 20.9443 18.6792C21.1731 19.2861 21.4193 19.8875 21.6874 20.478C21.8639 20.867 21.8802 21.232 21.6841 21.609C21.5217 21.9206 21.3649 22.2343 21.1666 22.6244C21.2766 22.7072 21.4095 22.7835 21.5152 22.8881C22.1482 23.5134 22.1548 23.5309 22.9359 23.1081C23.4535 22.8292 23.9296 22.8238 24.4329 23.1321C24.6966 23.2934 24.9842 23.459 25.2817 23.5156C26.3134 23.7128 26.9116 24.299 27.0685 25.3362C27.1012 25.5541 27.2352 25.5999 27.4433 25.6042C28.4739 25.6238 28.4805 25.6315 28.7921 24.664C28.9348 24.2195 29.1985 23.922 29.6463 23.7564C30.2411 23.5363 30.8273 23.2868 31.4069 23.0275C31.7937 22.8543 32.163 22.8369 32.5411 23.0275C32.7111 23.1125 32.8919 23.1822 33.0466 23.2901C33.3659 23.5134 33.5936 23.4699 33.8649 23.1735C34.438 22.5492 34.4739 22.5568 34.0632 21.8051C33.7744 21.2767 33.7734 20.7995 34.0686 20.2689C34.3105 19.8341 34.5033 19.3613 34.6439 18.8841C34.8051 18.335 35.1004 17.9765 35.6637 17.8425C35.8478 17.7989 36.021 17.7085 36.2052 17.6693C36.4634 17.6159 36.5429 17.484 36.5418 17.2182C36.5364 16.2267 36.5505 16.2169 35.5939 15.9119C35.144 15.7691 34.8574 15.5022 34.694 15.0555C34.475 14.4595 34.2222 13.8756 33.9629 13.2959C33.7973 12.9233 33.7832 12.5681 33.952 12.1977C34.1067 11.8578 34.4238 11.4732 34.3552 11.1834C34.2767 10.8554 33.8485 10.6114 33.5707 10.3324C33.5522 10.3139 33.5249 10.3052 33.477 10.2791C33.2014 10.4163 32.9072 10.5514 32.625 10.7083C32.1805 10.9556 31.7643 10.9251 31.31 10.6996C30.7903 10.4414 30.2477 10.2235 29.6986 10.0339C29.2497 9.8792 28.9512 9.61118 28.8106 9.1623C28.7463 8.95529 28.6624 8.75264 28.621 8.54018C28.5611 8.24166 28.3944 8.16866 28.1046 8.17193C27.1654 8.18391 27.1556 8.16866 26.8734 9.05662C26.7231 9.52838 26.4638 9.85523 25.979 10.0274C25.3939 10.2355 24.8219 10.4828 24.2553 10.741C23.8707 10.9164 23.5068 10.9437 23.1222 10.7606C22.7867 10.6016 22.4064 10.2954 22.1101 10.3575C21.7974 10.4229 21.561 10.8489 21.2919 11.118C21.2635 11.1463 21.2417 11.1812 21.2058 11.2291L21.2047 11.228ZM10.1102 14.5216C10.4904 14.5216 10.8271 14.5293 11.1626 14.5162C11.2422 14.5129 11.3696 14.4595 11.3903 14.3996C11.6899 13.5335 12.3437 12.9211 12.9287 12.2674C13.9082 11.1725 14.1435 9.90208 13.8646 8.50968C13.3798 6.0953 10.9665 4.54492 8.51183 5.05154C6.1356 5.54183 4.54163 7.95402 5.00032 10.3237C5.17355 11.2193 5.69107 11.8915 6.24237 12.5725C6.69888 13.1369 7.08239 13.7612 7.50294 14.3549C7.55088 14.4236 7.63368 14.5107 7.70341 14.514C8.06295 14.5304 8.42358 14.5216 8.806 14.5216C8.806 13.2306 8.81799 11.995 8.79402 10.7606C8.79075 10.5602 8.67199 10.3303 8.53907 10.1712C8.25906 9.83998 7.92458 9.55671 7.62932 9.23857C7.33406 8.92152 7.35259 8.52493 7.65111 8.26672C7.93548 8.02048 8.27214 8.04336 8.5979 8.35061C8.88989 8.62517 9.16881 8.9128 9.49675 9.23748C9.79637 8.91607 10.047 8.62844 10.3172 8.36259C10.6636 8.02375 11.0341 8.01504 11.3195 8.31574C11.581 8.59248 11.5581 8.96401 11.2432 9.29086C10.9327 9.61445 10.6026 9.91952 10.2986 10.2485C10.2071 10.3477 10.121 10.4991 10.1189 10.6277C10.1058 11.9035 10.1112 13.1804 10.1112 14.5227L10.1102 14.5216ZM11.143 15.8661H7.7775C7.6424 17.3173 8.11852 17.9765 9.21348 18.0386C10.9197 18.1345 11.301 17.2389 11.143 15.8661Z" fill="#4D8AAB"/>
<path d="M23.9606 3.18419C24.2929 3.18419 24.5631 3.17547 24.8322 3.18637C25.2103 3.20271 25.4903 3.47509 25.5034 3.81938C25.5165 4.18219 25.2365 4.46873 24.8312 4.48725C24.562 4.49924 24.2929 4.48943 23.9617 4.48943C23.9617 4.77489 23.9683 5.02765 23.9606 5.27933C23.9454 5.75654 23.6937 6.03546 23.2906 6.03546C22.8864 6.03546 22.6445 5.76417 22.626 5.27497C22.6162 5.03201 22.6249 4.78796 22.6249 4.48616C22.3155 4.48616 22.0355 4.49379 21.7555 4.48398C21.3665 4.47091 21.1028 4.21487 21.093 3.85642C21.0832 3.48489 21.3556 3.20162 21.7565 3.18419C22.0257 3.17329 22.2948 3.18201 22.626 3.18201C22.626 2.88675 22.614 2.62091 22.6282 2.35506C22.6521 1.90618 22.9158 1.63162 23.296 1.6338C23.673 1.63598 23.9399 1.92252 23.9595 2.3616C23.9704 2.61655 23.9617 2.87259 23.9617 3.18092L23.9606 3.18419Z" fill="#4D8AAB"/>
<path d="M4.3933 4.93463C3.85725 4.92047 2.54112 3.63375 2.59124 3.24479C2.61847 3.0356 2.77101 2.75015 2.94315 2.67497C3.13599 2.59108 3.48137 2.62158 3.64371 2.74906C4.05555 3.07264 4.43579 3.45289 4.75828 3.86581C4.88576 4.02815 4.90646 4.36699 4.8291 4.56964C4.75937 4.75268 4.48917 4.85945 4.39221 4.93463H4.3933Z" fill="#4D8AAB"/>
<path d="M16.3502 3.10891C16.3372 3.64168 15.0505 4.96436 14.6648 4.91533C14.4545 4.88809 14.1712 4.73665 14.0939 4.56341C14.0089 4.37166 14.0361 4.02519 14.1636 3.86285C14.4861 3.45102 14.8663 3.07077 15.2782 2.74828C15.4405 2.6208 15.7783 2.6001 15.982 2.67637C16.165 2.74501 16.274 3.01303 16.3502 3.10891Z" fill="#4D8AAB"/>
<path d="M1.40987 8.81358C1.65392 8.81358 1.89797 8.80269 2.14093 8.81576C2.52117 8.83646 2.77067 9.10557 2.76849 9.47056C2.76631 9.83664 2.5179 10.1003 2.12895 10.1112C1.62886 10.1254 1.12768 10.1254 0.626504 10.1112C0.242994 10.0981 -0.0032364 9.82575 3.21462e-05 9.45858C0.00330069 9.09359 0.253889 8.83319 0.638489 8.81467C0.895615 8.80269 1.15274 8.81249 1.40987 8.81249V8.81358Z" fill="#4D8AAB"/>
<path d="M17.5041 10.1092C17.247 10.1092 16.9877 10.1277 16.7327 10.1037C16.3743 10.07 16.1749 9.85097 16.1509 9.49143C16.128 9.14496 16.3677 8.83554 16.7131 8.8192C17.2535 8.79414 17.7961 8.79523 18.3365 8.81702C18.6906 8.83118 18.9227 9.12099 18.9183 9.47291C18.9139 9.82482 18.6775 10.0852 18.3158 10.107C18.0456 10.1234 17.7743 10.1103 17.5041 10.1092Z" fill="#4D8AAB"/>
<path d="M13.1981 23.9725C13.1981 24.2928 13.2068 24.551 13.1959 24.8071C13.1774 25.2407 12.9028 25.5262 12.5226 25.5196C12.1543 25.5142 11.9059 25.2505 11.8787 24.8267C11.87 24.6916 11.8754 24.5554 11.8743 24.4203C11.8743 24.2874 11.8743 24.1544 11.8743 23.9725C11.5682 23.9725 11.3012 23.979 11.0354 23.9714C10.6127 23.9594 10.349 23.7154 10.3392 23.3373C10.3283 22.9353 10.5865 22.6814 11.0343 22.6651C11.2903 22.6564 11.5475 22.664 11.8765 22.664C11.8765 22.3742 11.8678 22.1083 11.8787 21.8436C11.8961 21.3827 12.1358 21.1223 12.528 21.1212C12.9355 21.119 13.1861 21.3969 13.1992 21.8708C13.2057 22.1138 13.2003 22.3567 13.2003 22.6651C13.5032 22.6651 13.7821 22.6564 14.061 22.6673C14.4706 22.6836 14.7485 22.9571 14.7452 23.3199C14.7419 23.6794 14.4532 23.9562 14.0512 23.9703C13.7832 23.9801 13.5151 23.9725 13.1992 23.9725H13.1981Z" fill="#4D8AAB"/>
<path d="M32.4586 16.873C32.463 19.4344 30.394 21.5209 27.8456 21.5241C25.2743 21.5274 23.1672 19.429 23.1748 16.8741C23.1825 14.3333 25.2841 12.2371 27.8249 12.2393C30.3776 12.2403 32.4542 14.3181 32.4586 16.8741V16.873ZM24.5149 16.8654C24.5029 18.6968 25.964 20.1862 27.7976 20.2124C29.5943 20.2385 31.1327 18.7306 31.1534 16.9231C31.1741 15.0927 29.6716 13.5685 27.8358 13.5587C26.0141 13.5489 24.5269 15.0306 24.5149 16.8654Z" fill="#4D8AAB"/>
</svg>
