<svg width="36" height="36" viewBox="0 0 36 36" fill="none" xmlns="http://www.w3.org/2000/svg">
<path d="M34.3221 34.5743C34.3221 30.3379 34.3221 26.2228 34.3221 22.1062C34.3221 19.8637 34.3251 17.6198 34.3192 15.3773C34.3192 14.9277 34.3473 14.4691 34.9227 14.4795C35.4966 14.4884 35.5055 14.9573 35.504 15.3995C35.5011 21.8828 35.4966 28.3647 35.5099 34.848C35.5099 35.5166 35.257 35.7636 34.5899 35.7636C24.4337 35.7518 14.279 35.7606 4.12289 35.7503C1.82274 35.7473 0.0107242 33.9131 0.00776578 31.5997C-0.00258859 25.2894 -0.00258859 18.9792 0.00776578 12.6689C0.0122034 10.3658 1.86564 8.54051 4.14803 8.54199C6.43043 8.54347 8.25724 10.3703 8.28239 12.6793C8.2883 13.2414 8.28239 13.805 8.28239 14.4602C8.86519 14.4602 9.40953 14.3981 9.92873 14.4869C10.1905 14.5313 10.4065 14.8493 10.6432 15.0431C10.4109 15.2413 10.2024 15.5652 9.94352 15.6125C9.44355 15.7043 8.91548 15.6392 8.28386 15.6392V16.4438C8.28386 21.3237 8.28386 26.205 8.28386 31.0849C8.28386 31.2816 8.34303 31.5154 8.25872 31.6677C8.14186 31.8778 7.89927 32.1795 7.73952 32.1632C7.51616 32.1396 7.27801 31.8896 7.12861 31.6766C7.03099 31.5375 7.09903 31.292 7.06057 31.0997C6.7455 29.5318 5.28849 28.4638 3.76492 28.6738C2.23396 28.8854 1.10829 30.2418 1.18668 31.7801C1.26656 33.3422 2.54459 34.5595 4.16578 34.5714C6.38458 34.5876 8.60189 34.5758 10.8207 34.5758C18.3631 34.5758 25.9055 34.5758 33.4479 34.5758H34.3192L34.3221 34.5743ZM1.18373 28.6147C2.91734 27.3692 4.56073 26.8396 7.0724 28.5658C7.08424 28.4505 7.10199 28.3617 7.10199 28.2744C7.10199 23.0499 7.11678 17.8269 7.09311 12.6024C7.08572 10.9827 5.73225 9.71647 4.13176 9.72239C2.53423 9.72831 1.21923 11.0019 1.19112 12.626C1.16302 14.2768 1.18373 15.9276 1.18373 17.5784C1.18373 21.2231 1.18373 24.8693 1.18373 28.6147Z" fill="#4D8AAB"/>
<path d="M31.9561 7.39169H30.823V20.9204H31.9561C31.9561 20.6408 31.9561 20.3775 31.9561 20.1128C31.9561 17.3526 31.959 14.5909 31.9531 11.8308C31.9531 11.3811 31.9797 10.9225 32.5551 10.9314C33.1291 10.9403 33.1394 11.4077 33.1379 11.85C33.1335 14.98 33.1394 18.1114 33.1276 21.2414C33.1276 21.5284 33.0669 21.8301 32.9634 22.0978C32.2741 23.8596 31.5804 25.6213 30.8481 27.3653C30.7328 27.6404 30.4221 28.0013 30.1884 28.0102C29.9695 28.0191 29.6352 27.6567 29.5213 27.386C28.7788 25.6198 28.0732 23.8359 27.3794 22.0505C27.267 21.7635 27.2286 21.4307 27.2271 21.1186C27.2182 15.2018 27.2182 9.28654 27.2226 3.36976C27.2226 1.57402 28.4814 0.260498 30.1781 0.260498C31.8747 0.260498 33.1276 1.57402 33.132 3.37124C33.1379 5.17142 33.1305 6.97012 33.135 8.7703C33.135 9.20962 33.135 9.68888 32.564 9.70072C31.9339 9.71403 31.9442 9.20223 31.9516 8.74072C31.9575 8.30288 31.9516 7.86504 31.9516 7.39317L31.9561 7.39169ZM29.5376 20.9367V7.38874H28.4415V20.9352H29.5376V20.9367ZM31.9206 3.78246C32.0552 2.82098 31.7963 2.09174 30.9857 1.6465C30.3733 1.30925 29.7432 1.35954 29.1752 1.76928C28.4888 2.26629 28.2921 2.94967 28.4519 3.78246H31.9206ZM31.9309 5.04717H28.4415V6.13142H31.9309V5.04717ZM28.7462 22.1703C29.2551 23.5977 28.8202 23.2945 30.7579 23.333C31.5774 23.3492 31.3466 22.6082 31.6558 22.1703H28.7462ZM30.6943 24.5622H29.6648C29.8305 24.9793 29.9665 25.324 30.1781 25.858C30.3896 25.3254 30.5272 24.9808 30.6943 24.5622Z" fill="#4D8AAB"/>
<path d="M15.4146 19.0237C13.9591 18.3566 13.1515 17.3315 13.0124 15.8109C12.9991 15.6733 12.8793 15.515 12.7639 15.4204C11.4667 14.3627 11.5037 13.1897 12.8734 12.249C12.9326 12.209 12.9976 12.178 13.1322 12.104C12.9192 11.854 12.7713 11.6721 12.6145 11.4975C10.9312 9.62489 10.7848 6.86471 12.2625 4.82342C13.7446 2.77622 16.4989 2.05141 18.7902 3.10608C18.8789 3.1475 18.9632 3.19927 19.0535 3.24068C19.4395 3.41671 19.7147 3.74657 19.4617 4.10158C19.3256 4.29387 18.7902 4.39002 18.5417 4.28204C17.558 3.85751 16.5817 3.6519 15.5285 3.94478C14.0316 4.36191 13.0331 5.31599 12.5968 6.79223C12.1501 8.30692 12.5346 9.65447 13.5938 10.823C13.8171 11.0701 14.0005 11.3555 14.1958 11.6262C14.3008 11.7712 14.3925 11.9265 14.4901 12.0774C14.5434 11.891 14.6588 11.6987 14.641 11.5197C14.5301 10.3438 14.3896 9.17077 14.2624 7.99777C14.2387 7.77737 14.1854 7.55106 14.2165 7.33805C14.289 6.84252 14.6351 6.631 15.07 6.83365C16.067 7.29959 17.0122 7.30255 18.0284 6.85731C18.6851 6.56887 19.0047 6.96234 18.9055 7.80696C18.7443 9.19592 18.586 10.5864 18.5698 12.1011C18.6911 12.0064 18.8464 11.9354 18.9263 11.8141C19.12 11.5227 19.2265 11.1559 19.4632 10.9118C20.7309 9.60122 21.0593 7.875 20.3152 6.21386C20.2753 6.12363 20.185 6.03044 20.1954 5.94909C20.2339 5.6429 20.2013 5.2021 20.3847 5.06749C20.7383 4.80567 21.0474 5.06157 21.2619 5.43433C22.3121 7.26409 22.0326 9.79647 20.5844 11.428C20.4114 11.6233 20.2398 11.8215 20.0327 12.0567C20.293 12.2505 20.4927 12.3806 20.6717 12.5345C21.5563 13.3007 21.4956 14.524 20.583 15.2961C20.3596 15.4855 20.1762 15.802 20.114 16.089C19.7931 17.5903 18.9736 18.608 17.4752 19.0695C17.1231 19.1775 16.7592 19.3876 16.5063 19.6509C15.5907 20.6064 14.4975 21.2188 13.2254 21.5354C12.9636 21.6004 12.6929 21.6419 12.4385 21.7277C11.6516 21.9939 11.156 22.7749 11.2507 23.5648C11.3498 24.3946 12.0302 25.0455 12.8882 25.1002C13.3305 25.1283 13.7846 25.0588 14.215 25.1357C14.4251 25.1727 14.7165 25.4286 14.7446 25.6179C14.7727 25.8088 14.5656 26.1564 14.3777 26.2348C12.8852 26.8605 10.7493 25.865 10.2168 24.334C9.63839 22.6714 10.5821 20.9747 12.3601 20.5251C13.4577 20.247 14.5375 19.9541 15.4132 19.0252L15.4146 19.0237ZM14.2431 15.6704C14.2032 17.2072 15.6454 18.0681 16.669 18.0104C17.9352 17.938 18.9366 16.8907 18.8567 15.6704H14.2431ZM16.5388 14.4559C17.4737 14.4559 18.41 14.5003 19.3389 14.4278C19.6096 14.4071 19.8552 14.0566 20.1126 13.8569C19.8522 13.6616 19.5963 13.3036 19.3301 13.2962C17.487 13.2474 15.6424 13.246 13.7994 13.2962C13.5375 13.3036 13.2846 13.669 13.0287 13.8672C13.289 14.0625 13.5375 14.4056 13.8127 14.4278C14.7165 14.4988 15.6291 14.4545 16.5388 14.4545V14.4559ZM17.2267 12.0611C17.3627 10.7994 17.4988 9.55241 17.6231 8.40899H15.5137C15.6439 9.57164 15.7815 10.8068 15.922 12.0611H17.2281H17.2267Z" fill="#4D8AAB"/>
<path d="M20.0626 29.8131H21.2105C21.5374 28.1579 22.5121 27.5943 24.0402 28.2097C24.2147 27.9064 24.3937 27.5973 24.5697 27.2926C23.2577 26.3799 23.2591 25.0235 24.5668 24.1005C24.3893 23.7943 24.2103 23.4851 24.0357 23.1819C22.5062 23.815 21.3983 23.176 21.2608 21.5977H20.1987C19.9457 23.2011 18.8437 23.8475 17.4089 23.1597C17.2344 23.4555 17.0539 23.7602 16.8158 24.1626C18.1885 24.4717 17.69 25.5471 17.761 26.3858C17.7743 26.5485 17.5805 26.7734 17.4237 26.8932C17.153 27.1017 16.838 27.2526 16.5406 27.4257C16.1753 27.6387 15.7936 27.7881 15.5244 27.3177C15.2508 26.8384 15.6028 26.6092 15.9564 26.3917C16.8542 25.84 16.8572 25.5471 15.9253 24.9894C15.4135 24.6833 15.3159 24.346 15.6339 23.8401C15.9741 23.2987 16.2833 22.7381 16.5924 22.179C16.8616 21.6908 17.1989 21.6184 17.6885 21.8876C18.6825 22.4364 18.9221 22.3032 18.9325 21.1983C18.9384 20.5962 19.1928 20.3492 19.7845 20.3684C20.3999 20.3892 21.0167 20.3921 21.632 20.3684C22.277 20.3418 22.5003 20.6421 22.4959 21.2619C22.487 22.2663 22.7976 22.4467 23.6659 21.932C24.2043 21.6124 24.5712 21.6701 24.87 22.2337C25.1584 22.7766 25.4587 23.3135 25.79 23.8312C26.1421 24.3815 25.9794 24.7188 25.4498 25.025C24.5741 25.5308 24.5771 25.8637 25.4691 26.3843C26.0119 26.7009 26.1229 27.05 25.7767 27.5854C25.4439 28.1017 25.1481 28.6416 24.8567 29.183C24.5756 29.7036 24.228 29.7865 23.7088 29.4906C22.774 28.9566 22.4914 29.112 22.4959 30.1578C22.4988 30.7953 22.2341 31.0541 21.6084 31.0275C21.0182 31.0024 20.425 31.0024 19.8348 31.0275C19.2195 31.0541 18.931 30.8204 18.9325 30.1725C18.934 29.1105 18.6648 28.9655 17.7299 29.4788C17.3572 29.6829 16.9874 29.8442 16.7137 29.3782C16.4356 28.9034 16.7684 28.6593 17.1338 28.4508C17.3261 28.3413 17.5287 28.2437 17.7048 28.1135C18.1811 27.7615 18.5775 27.8044 19.0982 28.1313C19.7327 28.5306 20.3925 28.8117 20.0641 29.8161L20.0626 29.8131Z" fill="#4D8AAB"/>
<path d="M25.0497 33.3875C23.8915 33.3875 22.7333 33.3816 21.5751 33.3905C21.1402 33.3934 20.7379 33.3209 20.7334 32.8017C20.7305 32.2811 21.1284 32.2027 21.5662 32.2041C23.7347 32.2115 25.9047 32.2101 28.0732 32.2056C29.1722 32.2041 29.582 31.7914 29.5894 30.6924C29.5908 30.3966 29.5287 30.08 29.616 29.8123C29.687 29.5963 29.9133 29.3419 30.1174 29.2886C30.2787 29.2472 30.6115 29.4351 30.7002 29.6067C31.4975 31.151 30.1929 33.3268 28.4519 33.3831C27.8114 33.4038 27.1709 33.3875 26.5289 33.3875C26.0363 33.3875 25.5423 33.3875 25.0497 33.3875Z" fill="#4D8AAB"/>
<path d="M20.7293 23.9259C21.7011 23.9347 22.5014 24.7601 22.4836 25.7349C22.4673 26.6772 21.6745 27.4626 20.7322 27.47C19.7604 27.4789 18.9395 26.6683 18.9395 25.6994C18.9395 24.7291 19.7589 23.917 20.7293 23.9259ZM21.531 25.6669C21.1597 25.411 20.9083 25.1107 20.7337 25.1506C20.5015 25.2024 20.3269 25.5189 20.1272 25.7216C20.3417 25.908 20.5414 26.2097 20.7781 26.2438C20.9556 26.2689 21.1819 25.9494 21.531 25.6669Z" fill="#4D8AAB"/>
<path d="M14.1993 31.0813C14.1667 32.0487 13.3147 32.8371 12.3488 32.7927C11.3814 32.7498 10.6063 31.8919 10.6566 30.923C10.7039 29.9867 11.5279 29.2264 12.4686 29.25C13.4405 29.2737 14.2333 30.1109 14.2008 31.0813H14.1993ZM11.6077 31.0488C11.9775 31.3061 12.226 31.6079 12.4021 31.5694C12.6358 31.5191 12.8103 31.2041 13.0115 31.0029C12.797 30.815 12.6018 30.5118 12.3651 30.4763C12.1876 30.4497 11.9598 30.7692 11.6077 31.0502V31.0488Z" fill="#4D8AAB"/>
<path d="M23.9604 15.6354C23.493 15.6354 23.0152 15.6976 22.5655 15.6103C22.32 15.5629 22.1232 15.2641 21.9043 15.0778C22.1262 14.8707 22.3362 14.5038 22.5729 14.4861C23.5018 14.4166 24.4396 14.4225 25.3701 14.4831C25.6008 14.4979 25.8094 14.8293 26.0283 15.0142C25.8064 15.2212 25.6112 15.5511 25.3553 15.6073C24.91 15.7049 24.4278 15.6339 23.9604 15.6339V15.6354Z" fill="#4D8AAB"/>
<path d="M16.634 0C16.8751 0.430446 17.1369 0.687825 17.1117 0.914142C17.091 1.10496 16.6798 1.4363 16.5467 1.39192C16.3174 1.315 16.0541 1.00881 16.0245 0.772139C16.0023 0.593157 16.3233 0.372757 16.6325 0H16.634Z" fill="#4D8AAB"/>
<path d="M10.3212 7.94256C9.91299 8.21917 9.67928 8.49874 9.45 8.49282C9.25771 8.48838 8.89235 8.10971 8.92489 7.97362C8.9811 7.73843 9.26215 7.44999 9.49586 7.40117C9.67188 7.36419 9.91891 7.66447 10.3198 7.94256H10.3212Z" fill="#4D8AAB"/>
<path d="M23.69 7.09792C23.9533 7.51357 24.2269 7.75616 24.2151 7.98395C24.2047 8.17625 23.8142 8.5283 23.6782 8.49132C23.4444 8.42771 23.1664 8.13631 23.1235 7.90112C23.0909 7.72509 23.4001 7.48694 23.69 7.09644V7.09792Z" fill="#4D8AAB"/>
<path d="M13.05 2.62655C12.7601 2.23161 12.4731 2.00973 12.4746 1.78933C12.4746 1.59999 12.8385 1.23611 12.982 1.26274C13.2157 1.30711 13.5056 1.57928 13.5677 1.81004C13.6121 1.97275 13.3178 2.22717 13.05 2.62655Z" fill="#4D8AAB"/>
<path d="M20.1241 2.60333C19.8505 2.24536 19.5398 2.00869 19.5739 1.84302C19.6212 1.61079 19.9244 1.42885 20.1182 1.2262C20.3135 1.42737 20.6182 1.60487 20.6685 1.8371C20.704 2.00277 20.3963 2.24092 20.1241 2.60185V2.60333Z" fill="#4D8AAB"/>
<path d="M10.402 5.26173C10.1372 4.83128 9.87096 4.5887 9.88427 4.36238C9.89462 4.17008 10.2274 3.99554 10.4183 3.8136C10.6061 4.02069 10.9034 4.20854 10.9449 4.44078C10.9759 4.61976 10.686 4.85643 10.4035 5.26173H10.402Z" fill="#4D8AAB"/>
<path d="M22.7499 5.25729C22.4615 4.85939 22.1671 4.62716 22.1952 4.44817C22.2337 4.21446 22.5295 4.02364 22.7144 3.8136C22.9082 3.99258 23.244 4.16269 23.2573 4.35498C23.2736 4.5813 23.0088 4.82685 22.7499 5.25729Z" fill="#4D8AAB"/>
<path d="M10.3187 12.174C10.1619 11.9462 9.88232 11.7199 9.88379 11.4921C9.88379 11.2983 10.1959 10.9684 10.3897 10.9536C10.5731 10.9389 10.9222 11.2406 10.9444 11.4314C10.9695 11.6577 10.721 11.9136 10.5923 12.1577L10.3202 12.174H10.3187Z" fill="#4D8AAB"/>
<path d="M23.5661 11.531C23.1357 11.7929 22.8916 12.0576 22.6668 12.0414C22.4848 12.028 22.1905 11.673 22.1964 11.4763C22.2023 11.284 22.5262 10.9482 22.7052 10.9512C22.933 10.9541 23.1564 11.2367 23.5646 11.531H23.5661Z" fill="#4D8AAB"/>
</svg>
