<svg width="42" height="37" viewBox="0 0 42 37" fill="none" xmlns="http://www.w3.org/2000/svg">
<path d="M20.8555 36.0606C14.9407 36.0606 9.02601 36.0606 3.11127 36.0606C1.18735 36.0606 0.0103158 34.8836 0.000455855 32.9547C-0.00200913 32.5233 0.00661832 32.092 0.000455855 31.6606C-0.00693911 31.1011 0.262977 30.8225 0.821297 30.8213C0.985218 30.8213 1.15161 30.8053 1.31429 30.8213C1.76169 30.8693 1.96259 30.6795 1.94163 30.2284C1.92684 29.9216 1.94163 29.6122 1.94163 29.3041C1.94163 21.5406 1.93424 13.7771 1.95766 6.01364C1.95889 5.48366 2.07967 4.89823 2.32864 4.43728C2.70948 3.72983 3.42309 3.52646 4.22298 3.52893C8.4948 3.54249 12.7666 3.53509 17.0384 3.53509C20.0371 3.53509 23.0358 3.52523 26.0344 3.54372C26.5718 3.54742 26.9366 3.40075 27.2854 2.96198C29.4534 0.236939 32.9598 -0.686199 36.3997 0.520412C39.6103 1.64691 41.6994 4.57532 41.7573 7.9807C41.7894 9.87997 41.2409 11.5722 40.1342 13.1079C39.9554 13.3556 39.8273 13.7032 39.826 14.0051C39.8075 19.3862 39.8162 24.7673 39.8063 30.1483C39.8063 30.6401 39.9591 30.8361 40.4805 30.8311C41.7006 30.82 41.7524 30.8965 41.7524 32.1326C41.7524 32.4617 41.7561 32.7896 41.7512 33.1186C41.7228 34.8429 40.5051 36.0594 38.7858 36.0606C32.8094 36.0643 26.8331 36.0618 20.8567 36.0618L20.8555 36.0606ZM25.9617 4.93274C25.6943 4.91795 25.4724 4.89577 25.2506 4.89577C18.372 4.89453 11.4922 4.8933 4.61368 4.89577C3.55497 4.89577 3.33065 5.11392 3.33065 6.14551C3.32819 14.0926 3.32819 22.0385 3.33065 29.9856C3.33065 30.8151 3.33805 30.8188 4.14533 30.8188C15.2957 30.8188 26.4448 30.8188 37.5952 30.8188C38.4099 30.8188 38.421 30.8126 38.421 29.9967C38.4234 25.1912 38.4235 20.387 38.4198 15.5815C38.4198 15.372 38.3778 15.1624 38.3557 14.9468C38.2299 14.9689 38.1831 14.964 38.1511 14.9837C35.5431 16.5576 32.8464 16.8066 30.0339 15.563C29.8293 15.473 29.552 15.51 29.3141 15.5383C28.5006 15.6357 27.6909 15.7775 26.8762 15.86C26.0357 15.9451 25.8187 15.7245 25.8878 14.8999C25.9309 14.3897 25.9925 13.8794 26.0862 13.3766C26.2427 12.5409 26.2587 11.762 25.9075 10.9276C25.3948 9.70496 25.2555 8.38865 25.5069 7.06249C25.6351 6.38339 25.7953 5.70921 25.9642 4.93151L25.9617 4.93274ZM27.3988 14.3502C27.8413 14.296 28.142 14.2418 28.4439 14.227C29.1847 14.19 29.8971 13.888 30.6711 14.259C33.2001 15.473 35.6035 15.0836 37.7727 13.4111C39.9616 11.7225 40.7689 9.42272 40.1699 6.74327C39.5623 4.02193 37.8097 2.25207 35.1006 1.60131C32.4274 0.95918 30.1177 1.74181 28.4008 3.90607C26.716 6.02966 26.2871 8.40714 27.4247 10.9424C27.6761 11.5019 27.7291 12.027 27.6305 12.6075C27.5393 13.1461 27.4838 13.6921 27.3976 14.3502H27.3988ZM17.7915 34.6087C17.6547 33.9789 17.5043 33.4847 17.4501 32.9794C17.3848 32.3791 17.1013 32.2251 16.5171 32.2276C11.7523 32.251 6.98746 32.2399 2.22141 32.2411C2.09816 32.2411 1.94903 32.2004 1.85782 32.2547C1.69637 32.3508 1.46836 32.4901 1.44617 32.638C1.25637 33.8951 1.92068 34.6469 3.19508 34.6482C7.81693 34.6506 12.4375 34.6494 17.0594 34.6482C17.2776 34.6482 17.4945 34.6247 17.7927 34.6087H17.7915ZM23.9651 34.6063C24.2362 34.6235 24.4359 34.6482 24.6343 34.6482C29.2968 34.6506 33.9594 34.6519 38.6206 34.6482C39.7447 34.6482 40.303 34.0529 40.335 32.9399C40.3498 32.41 40.1995 32.2239 39.6461 32.23C37.1207 32.2559 34.5941 32.2411 32.0675 32.2411C29.7467 32.2411 27.4259 32.2325 25.1051 32.2559C24.8685 32.2584 24.4815 32.4063 24.4272 32.5726C24.2202 33.2086 24.1204 33.8791 23.9651 34.6063ZM20.9011 32.2448V32.2411C20.5116 32.2411 20.1221 32.2411 19.7327 32.2411C18.7405 32.2411 18.7146 32.2485 18.9513 33.2197C19.374 34.9501 18.9377 34.6247 20.7248 34.6445C22.5933 34.6654 22.5945 34.6494 22.8965 32.7933C22.9002 32.7735 22.9039 32.7526 22.9088 32.7329C22.9889 32.389 22.8558 32.2349 22.5009 32.2411C21.9684 32.251 21.4348 32.2436 20.9023 32.2436L20.9011 32.2448Z" fill="#4D8AAB"/>
<path d="M16.2495 19.1278C16.4886 19.2609 16.6451 19.3509 16.8041 19.4371C19.4663 20.8755 20.8356 23.0866 20.7937 26.132C20.7728 27.6234 19.5292 28.9976 18.049 29.021C14.9492 29.0703 11.847 29.0789 8.74733 29.0186C7.09825 28.9865 5.80413 27.3066 5.9508 25.6464C6.20346 22.7747 7.55427 20.6561 10.1511 19.362C10.2239 19.325 10.2941 19.2806 10.3594 19.2325C10.389 19.2104 10.4038 19.1685 10.4556 19.0883C9.2699 17.9951 8.62531 16.6406 8.7843 14.994C8.89892 13.8059 9.41164 12.794 10.3114 11.9916C12.0221 10.4646 14.6978 10.4399 16.4085 11.9239C17.5202 12.8889 18.0551 14.1214 18.0292 15.5683C18.0034 16.9906 17.3883 18.1751 16.2508 19.1303L16.2495 19.1278ZM13.3618 27.6246C14.7767 27.6246 16.1916 27.6308 17.6065 27.6221C18.7823 27.6147 19.5008 26.8087 19.4022 25.6317C19.1397 22.527 16.9151 20.2604 13.7673 20.0842C10.2325 19.8858 7.60357 22.368 7.37063 25.6847C7.28929 26.8383 8.06453 27.6197 9.24032 27.6234C10.6146 27.6283 11.9876 27.6234 13.3618 27.6234V27.6246ZM13.4111 12.2665C11.6844 12.2665 10.2214 13.6999 10.1992 15.418C10.177 17.1459 11.6597 18.6594 13.3901 18.6779C15.1045 18.6952 16.6082 17.1731 16.5922 15.4402C16.5749 13.6962 15.144 12.269 13.4111 12.2677V12.2665Z" fill="#4D8AAB"/>
<path d="M33.6337 10.6079C34.6395 10.6079 35.6439 10.6128 36.6497 10.6054C37.139 10.6017 37.5321 10.7299 37.5346 11.2956C37.537 11.849 37.1611 12.0191 36.6681 12.0191C34.5963 12.0191 32.5245 12.0179 30.4527 12.0191C29.9745 12.0191 29.6318 11.8219 29.6232 11.319C29.6146 10.81 29.956 10.6091 30.4354 10.6091C31.5015 10.6091 32.5689 10.6091 33.635 10.6091L33.6337 10.6079Z" fill="#4D8AAB"/>
<path d="M33.5732 8.98971C32.5466 8.98971 31.5199 8.98848 30.4932 8.98971C30.0076 8.99094 29.5997 8.8566 29.6157 8.28842C29.6305 7.77077 30.0064 7.62904 30.4747 7.6315C32.549 7.63766 34.6233 7.63643 36.6964 7.6315C37.1647 7.6315 37.5258 7.76338 37.5345 8.30075C37.5431 8.84181 37.1807 8.98848 36.7136 8.98848C35.666 8.98848 34.6196 8.98848 33.572 8.98848L33.5732 8.98971Z" fill="#4D8AAB"/>
<path d="M31.948 6.00027C31.4168 6.00027 30.8856 6.00027 30.3532 6.00027C29.9206 6.00027 29.6334 5.79444 29.6161 5.35444C29.5964 4.87131 29.9045 4.65685 30.3581 4.65439C31.4205 4.64699 32.4841 4.64822 33.5466 4.65439C33.9878 4.65685 34.2429 4.88117 34.2417 5.33103C34.2404 5.78089 33.9853 5.99904 33.5416 6.00027C33.0104 6.00274 32.4792 6.00027 31.9468 6.00027H31.948Z" fill="#4D8AAB"/>
</svg>
