<svg width="53" height="48" viewBox="0 0 53 48" fill="none" xmlns="http://www.w3.org/2000/svg">
<path d="M43.4186 14.3088V15.5701C43.4186 23.6984 43.3421 31.8287 43.4475 39.9569C43.5116 44.9133 39.6367 47.8846 35.7576 47.8329C26.3557 47.7109 16.9537 47.8453 7.54967 47.8143C3.0751 47.7998 0.0169291 44.6114 0.0045227 40.1223C0.000387241 38.9851 0.0189968 37.8478 0.000387241 36.7127C-0.0140869 35.8421 0.376714 35.4699 1.25343 35.4803C3.28187 35.5072 5.30825 35.4886 7.45662 35.4886C7.47729 35.0357 7.50831 34.6387 7.51038 34.2438C7.58275 24.7715 7.65719 15.2993 7.71508 5.82905C7.72956 3.39947 8.69105 1.53438 10.9428 0.533601C11.7306 0.180019 12.6714 0.0290748 13.5419 0.0270071C24.6684 -0.00607659 35.7928 -0.00607659 46.9192 0.012533C50.6473 0.0187362 52.9363 2.37595 52.9425 6.12681C52.9467 8.36616 52.9239 10.6055 52.9529 12.8428C52.9653 13.8167 52.5497 14.2013 51.5861 14.193C48.9683 14.1703 46.3506 14.193 43.7329 14.2034C43.6708 14.2034 43.6088 14.2447 43.4165 14.3109L43.4186 14.3088ZM43.3358 1.75976C42.6969 1.75976 42.3888 1.75976 42.0807 1.75976C32.6395 1.75976 23.1982 1.7577 13.7591 1.75976C10.8167 1.75976 9.49953 3.08311 9.47886 6.05444C9.40855 15.4605 9.34032 24.8666 9.27208 34.2727C9.27002 34.6429 9.27208 35.0109 9.27208 35.4886C9.74559 35.4886 10.1136 35.4886 10.4838 35.4886C16.72 35.4886 22.9563 35.4886 29.1926 35.4886C30.458 35.4886 30.6317 35.6664 30.64 36.9194C30.6483 38.1601 30.6028 39.4028 30.6565 40.6393C30.824 44.417 34.4095 46.9603 37.9101 45.8107C40.2632 45.0373 41.6961 42.8724 41.6982 40.0148C41.7044 29.1262 41.7148 18.2396 41.6899 7.3509C41.6858 5.3969 41.7127 3.49045 43.3379 1.7577L43.3358 1.75976ZM28.9651 37.2647H1.7104C1.7104 38.2552 1.70626 39.1774 1.7104 40.0996C1.73314 43.7967 4.01385 46.0712 7.72335 46.0733C15.2644 46.0795 22.8074 46.0753 30.3484 46.0733C30.6379 46.0733 30.9253 46.036 31.4423 46.003C28.6322 43.5651 28.8721 40.4366 28.9631 37.2647H28.9651ZM51.1415 12.3817C51.1415 9.87767 51.2718 7.43361 51.1002 5.01023C50.9637 3.07484 49.2289 1.75976 47.308 1.7701C45.4243 1.78044 43.6274 3.16375 43.5033 5.03711C43.3441 7.46256 43.4641 9.90662 43.4641 12.3817H51.1395H51.1415Z" fill="white"/>
<path d="M17.4613 13.1017C16.6135 10.0767 18.1375 8.58583 20.8172 7.69877C22.0144 7.30177 23.0876 6.54498 24.2641 6.07147C24.7066 5.89365 25.358 5.88538 25.7881 6.07974C27.7917 6.98748 29.7436 8.011 31.7328 8.95595C32.3448 9.2475 32.6054 9.65278 32.5992 10.3227C32.5785 12.1485 32.6198 13.9743 32.5847 15.8001C32.5392 18.1656 31.5343 20.0348 29.5658 21.3747C28.3417 22.208 27.1052 23.0248 25.91 23.8974C25.2815 24.3564 24.7625 24.3357 24.1421 23.885C22.9449 23.0165 21.7064 22.2018 20.4843 21.3685C18.5159 20.0286 17.5316 18.1553 17.4696 15.7898C17.4468 14.8945 17.4654 13.9991 17.4654 13.1038L17.4613 13.1017ZM30.8436 13.7014C30.8436 12.9095 30.8044 12.1134 30.8561 11.3256C30.8995 10.6846 30.6741 10.3331 30.0848 10.0622C28.5857 9.37157 27.1321 8.58376 25.6268 7.90348C25.2856 7.75047 24.7563 7.75253 24.413 7.90555C22.8788 8.6003 21.359 9.33848 19.8826 10.149C19.558 10.3269 19.254 10.85 19.2354 11.2284C19.1631 12.775 19.1982 14.3279 19.2085 15.8787C19.2189 17.506 19.8992 18.8128 21.2039 19.766C22.2584 20.5394 23.3316 21.2941 24.4482 21.9702C24.7335 22.1439 25.3042 22.1336 25.5978 21.9599C26.6027 21.3644 27.5353 20.649 28.5092 20.0018C30.1013 18.9452 30.8953 17.4812 30.8436 15.5623C30.8271 14.942 30.8416 14.3217 30.8416 13.7014H30.8436Z" fill="white"/>
<path d="M25.4431 26.5968C28.6129 26.5968 31.7807 26.5968 34.9505 26.5968C35.2607 26.5968 35.6287 26.5203 35.8624 26.6588C36.1457 26.8263 36.4827 27.1881 36.4806 27.4652C36.4806 27.7319 36.1229 28.0793 35.8376 28.2385C35.5957 28.3729 35.2338 28.2964 34.9236 28.2964C28.5861 28.2964 22.2485 28.2964 15.9088 28.2964C15.6338 28.2964 15.305 28.3791 15.0962 28.2571C14.7819 28.0773 14.298 27.6989 14.3394 27.4962C14.4076 27.1613 14.7964 26.8387 15.1251 26.6257C15.3216 26.4996 15.6607 26.5926 15.9378 26.5926C19.1076 26.5926 22.2753 26.5926 25.4452 26.5926L25.4431 26.5968Z" fill="white"/>
<path d="M25.5368 30.5435C28.7397 30.5435 31.9426 30.5208 35.1455 30.5683C35.586 30.5745 36.0202 30.9281 36.4565 31.1204C36.2559 31.4864 36.1277 31.9434 35.8279 32.1874C35.6128 32.3611 35.1662 32.2659 34.823 32.2659C28.5557 32.268 22.2863 32.268 16.019 32.2659C15.8123 32.2659 15.5641 32.3383 15.407 32.2473C15.0079 32.0199 14.3938 31.7697 14.3297 31.4409C14.1994 30.7606 14.7908 30.5415 15.4111 30.5415C18.7857 30.5415 22.1623 30.5415 25.5368 30.5415V30.5435Z" fill="white"/>
<path d="M24.1888 15.6469C25.1461 14.6419 25.9484 13.7983 26.7507 12.9547C27.1725 12.5101 27.6708 12.2475 28.1712 12.75C28.6757 13.2545 28.3883 13.7508 27.9624 14.1767C26.9678 15.1713 25.9753 16.1659 24.9807 17.1604C24.441 17.7001 23.9055 17.6898 23.3741 17.148C22.8944 16.658 22.3299 16.2238 21.966 15.6593C21.7654 15.3491 21.8977 14.8218 21.8812 14.3918C22.3092 14.4248 22.7993 14.3401 23.1508 14.522C23.5188 14.7102 23.7545 15.1547 24.1888 15.6489V15.6469Z" fill="white"/>
</svg>
